<svg xmlns="http://www.w3.org/2000/svg" xmlns:xlink="http://www.w3.org/1999/xlink" width="1920" zoomAndPan="magnify" viewBox="0 0 1440 809.999993" height="1080" preserveAspectRatio="xMidYMid meet" version="1.0"><defs><filter x="0%" y="0%" width="100%" height="100%" id="0f6a0bca7e"><feColorMatrix values="0 0 0 0 1 0 0 0 0 1 0 0 0 0 1 0 0 0 1 0" color-interpolation-filters="sRGB"/></filter><g/><mask id="bf1ec7c161"><g filter="url(#0f6a0bca7e)"><rect x="-144" width="1728" fill="#000000" y="-80.999999" height="971.999992" fill-opacity="0.9"/></g></mask><clipPath id="f0edf0194c"><path d="M 0.792969 344 L 112 344 L 112 440 L 0.792969 440 Z M 0.792969 344 " clip-rule="nonzero"/></clipPath><clipPath id="e9b0e03249"><path d="M 632 201 L 743.292969 201 L 743.292969 297 L 632 297 Z M 632 201 " clip-rule="nonzero"/></clipPath><clipPath id="a68918c667"><path d="M 474 592 L 585 592 L 585 639.25 L 474 639.25 Z M 474 592 " clip-rule="nonzero"/></clipPath><clipPath id="67d4167751"><rect x="0" width="744" y="0" height="640"/></clipPath></defs><g mask="url(#bf1ec7c161)"><g transform="matrix(1, 0, 0, 1, 348, 80)"><g clip-path="url(#67d4167751)"><path fill="#d2e7fb" d="M 208.230469 108.832031 L 258.257812 195.484375 L 208.230469 282.136719 L 108.171875 282.136719 L 58.140625 195.484375 L 108.171875 108.832031 L 208.230469 108.832031 M 209.789062 106.125 L 106.609375 106.125 L 55.019531 195.484375 L 106.609375 284.84375 L 209.789062 284.84375 L 261.382812 195.484375 Z M 209.789062 106.125 " fill-opacity="1" fill-rule="nonzero"/><path fill="#d2e7fb" d="M 378.636719 403.351562 L 428.667969 490.007812 L 378.636719 576.660156 L 278.574219 576.660156 L 228.546875 490.007812 L 278.574219 403.351562 L 378.636719 403.351562 M 380.195312 400.648438 L 277.015625 400.648438 L 225.421875 490.007812 L 277.015625 579.363281 L 380.195312 579.363281 L 431.785156 490.007812 Z M 380.195312 400.648438 " fill-opacity="1" fill-rule="nonzero"/><path fill="#d2e7fb" d="M 264.714844 195.484375 C 264.714844 195.964844 264.671875 196.4375 264.578125 196.90625 C 264.484375 197.375 264.34375 197.832031 264.160156 198.273438 C 263.980469 198.714844 263.753906 199.136719 263.488281 199.535156 C 263.222656 199.933594 262.921875 200.300781 262.582031 200.640625 C 262.242188 200.976562 261.875 201.28125 261.476562 201.546875 C 261.078125 201.8125 260.660156 202.035156 260.214844 202.21875 C 259.773438 202.402344 259.320312 202.539062 258.847656 202.632812 C 258.378906 202.726562 257.90625 202.773438 257.425781 202.773438 C 256.949219 202.773438 256.472656 202.726562 256.003906 202.632812 C 255.535156 202.539062 255.078125 202.402344 254.636719 202.21875 C 254.195312 202.035156 253.773438 201.8125 253.378906 201.546875 C 252.980469 201.28125 252.609375 200.976562 252.273438 200.640625 C 251.933594 200.300781 251.632812 199.933594 251.367188 199.535156 C 251.101562 199.136719 250.875 198.714844 250.691406 198.273438 C 250.507812 197.832031 250.371094 197.375 250.277344 196.90625 C 250.183594 196.4375 250.136719 195.964844 250.136719 195.484375 C 250.136719 195.007812 250.183594 194.53125 250.277344 194.0625 C 250.371094 193.59375 250.507812 193.136719 250.691406 192.695312 C 250.875 192.253906 251.101562 191.832031 251.367188 191.433594 C 251.632812 191.035156 251.933594 190.667969 252.273438 190.328125 C 252.609375 189.992188 252.980469 189.6875 253.378906 189.421875 C 253.773438 189.15625 254.195312 188.933594 254.636719 188.75 C 255.078125 188.566406 255.535156 188.429688 256.003906 188.335938 C 256.472656 188.242188 256.949219 188.195312 257.425781 188.195312 C 257.90625 188.195312 258.378906 188.242188 258.847656 188.335938 C 259.320312 188.429688 259.773438 188.566406 260.214844 188.75 C 260.660156 188.933594 261.078125 189.15625 261.476562 189.421875 C 261.875 189.6875 262.242188 189.992188 262.582031 190.328125 C 262.921875 190.667969 263.222656 191.035156 263.488281 191.433594 C 263.753906 191.832031 263.980469 192.253906 264.160156 192.695312 C 264.34375 193.136719 264.484375 193.59375 264.578125 194.0625 C 264.671875 194.53125 264.714844 195.007812 264.714844 195.484375 Z M 264.714844 195.484375 " fill-opacity="1" fill-rule="nonzero"/><path fill="#d2e7fb" d="M 215.710938 107.25 C 215.710938 107.730469 215.664062 108.203125 215.574219 108.671875 C 215.480469 109.140625 215.339844 109.597656 215.15625 110.039062 C 214.972656 110.484375 214.75 110.902344 214.484375 111.300781 C 214.21875 111.699219 213.914062 112.066406 213.578125 112.40625 C 213.238281 112.742188 212.871094 113.046875 212.472656 113.3125 C 212.074219 113.578125 211.65625 113.800781 211.210938 113.984375 C 210.769531 114.167969 210.316406 114.308594 209.84375 114.402344 C 209.375 114.492188 208.902344 114.539062 208.421875 114.539062 C 207.945312 114.539062 207.46875 114.492188 207 114.402344 C 206.53125 114.308594 206.074219 114.167969 205.632812 113.984375 C 205.191406 113.800781 204.769531 113.578125 204.371094 113.3125 C 203.976562 113.046875 203.605469 112.742188 203.269531 112.40625 C 202.929688 112.066406 202.628906 111.699219 202.363281 111.300781 C 202.097656 110.902344 201.871094 110.484375 201.6875 110.039062 C 201.503906 109.597656 201.367188 109.140625 201.273438 108.671875 C 201.179688 108.203125 201.132812 107.730469 201.132812 107.25 C 201.132812 106.773438 201.179688 106.296875 201.273438 105.828125 C 201.367188 105.359375 201.503906 104.902344 201.6875 104.460938 C 201.871094 104.019531 202.097656 103.597656 202.363281 103.199219 C 202.628906 102.804688 202.929688 102.433594 203.269531 102.097656 C 203.605469 101.757812 203.976562 101.457031 204.375 101.191406 C 204.769531 100.925781 205.191406 100.699219 205.632812 100.515625 C 206.074219 100.332031 206.53125 100.195312 207 100.101562 C 207.46875 100.007812 207.945312 99.960938 208.421875 99.960938 C 208.902344 99.960938 209.375 100.007812 209.84375 100.101562 C 210.316406 100.195312 210.769531 100.332031 211.210938 100.515625 C 211.65625 100.699219 212.074219 100.925781 212.472656 101.191406 C 212.871094 101.457031 213.238281 101.757812 213.578125 102.097656 C 213.914062 102.433594 214.21875 102.804688 214.484375 103.199219 C 214.75 103.597656 214.972656 104.019531 215.15625 104.460938 C 215.339844 104.902344 215.480469 105.359375 215.574219 105.828125 C 215.664062 106.296875 215.710938 106.773438 215.710938 107.25 Z M 215.710938 107.25 " fill-opacity="1" fill-rule="nonzero"/><path fill="#d2e7fb" d="M 208.230469 302.359375 L 258.257812 389.011719 L 208.230469 475.667969 L 108.171875 475.667969 L 58.140625 389.007812 L 108.171875 302.355469 L 208.230469 302.355469 M 209.789062 299.65625 L 106.609375 299.65625 L 55.019531 389.007812 L 106.609375 478.367188 L 209.789062 478.367188 L 261.382812 389.007812 Z M 209.789062 299.65625 " fill-opacity="1" fill-rule="nonzero"/><path fill="#d2e7fb" d="M 215.402344 302.035156 C 215.402344 302.511719 215.355469 302.988281 215.261719 303.457031 C 215.171875 303.925781 215.03125 304.382812 214.847656 304.824219 C 214.664062 305.265625 214.441406 305.6875 214.175781 306.085938 C 213.910156 306.480469 213.605469 306.851562 213.269531 307.1875 C 212.929688 307.527344 212.5625 307.828125 212.164062 308.09375 C 211.765625 308.363281 211.34375 308.585938 210.902344 308.769531 C 210.460938 308.953125 210.003906 309.089844 209.535156 309.183594 C 209.066406 309.277344 208.59375 309.324219 208.113281 309.324219 C 207.636719 309.324219 207.160156 309.277344 206.691406 309.183594 C 206.222656 309.089844 205.765625 308.953125 205.324219 308.769531 C 204.882812 308.585938 204.460938 308.363281 204.0625 308.09375 C 203.667969 307.828125 203.296875 307.527344 202.960938 307.1875 C 202.621094 306.851562 202.320312 306.480469 202.054688 306.085938 C 201.785156 305.6875 201.5625 305.265625 201.378906 304.824219 C 201.195312 304.382812 201.058594 303.925781 200.964844 303.457031 C 200.871094 302.988281 200.824219 302.511719 200.824219 302.035156 C 200.824219 301.554688 200.871094 301.082031 200.964844 300.613281 C 201.058594 300.144531 201.195312 299.6875 201.378906 299.246094 C 201.5625 298.804688 201.785156 298.382812 202.054688 297.984375 C 202.320312 297.585938 202.621094 297.21875 202.960938 296.878906 C 203.296875 296.542969 203.667969 296.238281 204.0625 295.972656 C 204.460938 295.707031 204.882812 295.484375 205.324219 295.300781 C 205.765625 295.117188 206.222656 294.976562 206.691406 294.886719 C 207.160156 294.792969 207.636719 294.746094 208.113281 294.746094 C 208.59375 294.746094 209.066406 294.792969 209.535156 294.886719 C 210.003906 294.976562 210.460938 295.117188 210.902344 295.300781 C 211.34375 295.484375 211.765625 295.707031 212.164062 295.972656 C 212.5625 296.238281 212.929688 296.542969 213.269531 296.878906 C 213.605469 297.21875 213.910156 297.585938 214.175781 297.984375 C 214.441406 298.382812 214.664062 298.800781 214.847656 299.246094 C 215.03125 299.6875 215.171875 300.144531 215.261719 300.613281 C 215.355469 301.082031 215.402344 301.554688 215.402344 302.035156 Z M 215.402344 302.035156 " fill-opacity="1" fill-rule="nonzero"/><path fill="#d2e7fb" d="M 265.285156 389.007812 C 265.285156 389.488281 265.238281 389.960938 265.144531 390.433594 C 265.050781 390.902344 264.910156 391.355469 264.730469 391.800781 C 264.546875 392.242188 264.320312 392.660156 264.054688 393.058594 C 263.789062 393.457031 263.488281 393.824219 263.148438 394.164062 C 262.808594 394.503906 262.441406 394.804688 262.042969 395.070312 C 261.644531 395.335938 261.226562 395.5625 260.785156 395.746094 C 260.339844 395.925781 259.886719 396.066406 259.417969 396.160156 C 258.945312 396.253906 258.472656 396.300781 257.996094 396.300781 C 257.515625 396.300781 257.042969 396.253906 256.570312 396.160156 C 256.101562 396.066406 255.648438 395.925781 255.203125 395.746094 C 254.761719 395.5625 254.34375 395.335938 253.945312 395.070312 C 253.546875 394.804688 253.179688 394.503906 252.839844 394.164062 C 252.5 393.824219 252.199219 393.457031 251.933594 393.058594 C 251.667969 392.660156 251.441406 392.242188 251.257812 391.800781 C 251.078125 391.355469 250.9375 390.902344 250.84375 390.433594 C 250.75 389.960938 250.703125 389.488281 250.703125 389.007812 C 250.703125 388.53125 250.75 388.058594 250.84375 387.585938 C 250.9375 387.117188 251.078125 386.664062 251.257812 386.21875 C 251.441406 385.777344 251.667969 385.359375 251.933594 384.960938 C 252.199219 384.5625 252.5 384.195312 252.839844 383.855469 C 253.179688 383.515625 253.546875 383.214844 253.945312 382.949219 C 254.34375 382.683594 254.761719 382.457031 255.203125 382.273438 C 255.648438 382.09375 256.101562 381.953125 256.570312 381.859375 C 257.042969 381.765625 257.515625 381.71875 257.996094 381.71875 C 258.472656 381.71875 258.945312 381.765625 259.417969 381.859375 C 259.886719 381.953125 260.339844 382.09375 260.785156 382.273438 C 261.226562 382.457031 261.644531 382.683594 262.042969 382.949219 C 262.441406 383.214844 262.808594 383.515625 263.148438 383.855469 C 263.488281 384.195312 263.789062 384.5625 264.054688 384.960938 C 264.320312 385.359375 264.546875 385.777344 264.730469 386.21875 C 264.910156 386.664062 265.050781 387.117188 265.144531 387.585938 C 265.238281 388.058594 265.285156 388.53125 265.285156 389.007812 Z M 265.285156 389.007812 " fill-opacity="1" fill-rule="nonzero"/><path fill="#d2e7fb" d="M 284.691406 401.910156 C 284.691406 402.386719 284.644531 402.863281 284.554688 403.332031 C 284.460938 403.800781 284.320312 404.257812 284.136719 404.699219 C 283.953125 405.140625 283.730469 405.5625 283.464844 405.960938 C 283.199219 406.359375 282.894531 406.726562 282.558594 407.0625 C 282.21875 407.402344 281.851562 407.703125 281.453125 407.972656 C 281.054688 408.238281 280.636719 408.460938 280.191406 408.644531 C 279.75 408.828125 279.296875 408.964844 278.824219 409.058594 C 278.355469 409.152344 277.882812 409.199219 277.402344 409.199219 C 276.925781 409.199219 276.449219 409.152344 275.980469 409.058594 C 275.511719 408.964844 275.054688 408.828125 274.613281 408.644531 C 274.171875 408.460938 273.75 408.238281 273.355469 407.972656 C 272.957031 407.703125 272.585938 407.402344 272.25 407.0625 C 271.910156 406.726562 271.609375 406.359375 271.34375 405.960938 C 271.078125 405.5625 270.851562 405.140625 270.667969 404.699219 C 270.484375 404.257812 270.347656 403.800781 270.253906 403.332031 C 270.160156 402.863281 270.113281 402.386719 270.113281 401.910156 C 270.113281 401.429688 270.160156 400.957031 270.253906 400.488281 C 270.347656 400.019531 270.484375 399.5625 270.667969 399.121094 C 270.851562 398.679688 271.078125 398.257812 271.34375 397.859375 C 271.609375 397.460938 271.910156 397.09375 272.25 396.753906 C 272.585938 396.417969 272.957031 396.113281 273.351562 395.847656 C 273.75 395.582031 274.171875 395.359375 274.613281 395.175781 C 275.054688 394.992188 275.511719 394.855469 275.980469 394.761719 C 276.449219 394.667969 276.925781 394.621094 277.402344 394.621094 C 277.882812 394.621094 278.355469 394.667969 278.824219 394.761719 C 279.296875 394.855469 279.75 394.992188 280.191406 395.175781 C 280.636719 395.359375 281.054688 395.582031 281.453125 395.847656 C 281.851562 396.113281 282.21875 396.417969 282.558594 396.753906 C 282.894531 397.09375 283.199219 397.460938 283.464844 397.859375 C 283.730469 398.257812 283.953125 398.679688 284.136719 399.121094 C 284.320312 399.5625 284.460938 400.019531 284.554688 400.488281 C 284.644531 400.957031 284.691406 401.429688 284.691406 401.910156 Z M 284.691406 401.910156 " fill-opacity="1" fill-rule="nonzero"/><path fill="#d2e7fb" d="M 386.25 402.078125 C 386.25 402.558594 386.203125 403.03125 386.109375 403.5 C 386.015625 403.96875 385.878906 404.425781 385.695312 404.867188 C 385.511719 405.308594 385.289062 405.730469 385.023438 406.128906 C 384.757812 406.527344 384.453125 406.894531 384.117188 407.234375 C 383.777344 407.570312 383.410156 407.875 383.011719 408.140625 C 382.613281 408.40625 382.191406 408.628906 381.75 408.8125 C 381.308594 408.996094 380.851562 409.136719 380.382812 409.226562 C 379.914062 409.320312 379.441406 409.367188 378.960938 409.367188 C 378.480469 409.367188 378.007812 409.320312 377.539062 409.226562 C 377.070312 409.136719 376.613281 408.996094 376.171875 408.8125 C 375.730469 408.628906 375.308594 408.40625 374.910156 408.140625 C 374.511719 407.875 374.144531 407.570312 373.804688 407.234375 C 373.46875 406.894531 373.164062 406.527344 372.898438 406.128906 C 372.632812 405.730469 372.410156 405.308594 372.226562 404.867188 C 372.042969 404.425781 371.90625 403.96875 371.8125 403.5 C 371.71875 403.03125 371.671875 402.558594 371.671875 402.078125 C 371.671875 401.601562 371.71875 401.125 371.8125 400.65625 C 371.90625 400.1875 372.042969 399.730469 372.226562 399.289062 C 372.410156 398.847656 372.632812 398.425781 372.898438 398.027344 C 373.164062 397.632812 373.46875 397.261719 373.804688 396.925781 C 374.144531 396.585938 374.511719 396.285156 374.910156 396.019531 C 375.308594 395.75 375.730469 395.527344 376.171875 395.34375 C 376.613281 395.160156 377.070312 395.023438 377.539062 394.929688 C 378.007812 394.835938 378.480469 394.789062 378.960938 394.789062 C 379.441406 394.789062 379.914062 394.835938 380.382812 394.929688 C 380.851562 395.023438 381.308594 395.160156 381.75 395.34375 C 382.191406 395.527344 382.613281 395.75 383.011719 396.019531 C 383.410156 396.285156 383.777344 396.585938 384.117188 396.925781 C 384.453125 397.261719 384.757812 397.632812 385.023438 398.027344 C 385.289062 398.425781 385.511719 398.847656 385.695312 399.289062 C 385.878906 399.730469 386.015625 400.1875 386.109375 400.65625 C 386.203125 401.125 386.25 401.601562 386.25 402.078125 Z M 386.25 402.078125 " fill-opacity="1" fill-rule="nonzero"/><path fill="#d2e7fb" d="M 305.519531 330.992188 L 305.859375 330.992188 C 305.855469 330.933594 305.847656 330.878906 305.847656 330.824219 C 305.847656 330.75 305.851562 330.679688 305.859375 330.605469 L 305.519531 330.605469 C 305.515625 330.675781 305.511719 330.75 305.511719 330.824219 C 305.511719 330.878906 305.515625 330.9375 305.519531 330.992188 Z M 305.519531 330.992188 " fill-opacity="1" fill-rule="nonzero"/><path fill="#d2e7fb" d="M 301.074219 391.636719 L 273.675781 391.636719 L 261.429688 370.425781 C 261.226562 370.539062 261.015625 370.636719 260.789062 370.699219 L 273.277344 392.332031 L 301.476562 392.332031 L 314.023438 370.605469 C 313.808594 370.515625 313.605469 370.402344 313.417969 370.265625 Z M 301.074219 391.636719 " fill-opacity="1" fill-rule="nonzero"/><path fill="#d2e7fb" d="M 273.675781 344.183594 L 284.972656 344.183594 L 285.375 343.488281 L 273.277344 343.488281 L 260.789062 365.121094 C 261.015625 365.1875 261.226562 365.28125 261.429688 365.394531 Z M 273.675781 344.183594 " fill-opacity="1" fill-rule="nonzero"/><path fill="#d2e7fb" d="M 313.414062 365.554688 C 313.601562 365.421875 313.804688 365.304688 314.019531 365.214844 L 309.097656 356.691406 L 308.695312 357.386719 Z M 313.414062 365.554688 " fill-opacity="1" fill-rule="nonzero"/><path fill="#d2e7fb" d="M 308.476562 357 L 308.875 356.304688 L 301.476562 343.488281 L 285.820312 343.488281 L 285.417969 344.183594 L 301.074219 344.183594 Z M 308.476562 357 " fill-opacity="1" fill-rule="nonzero"/><path fill="#d2e7fb" d="M 293.035156 330.992188 L 305.519531 330.992188 C 305.515625 330.933594 305.511719 330.878906 305.511719 330.824219 C 305.511719 330.75 305.515625 330.679688 305.519531 330.605469 L 292.8125 330.605469 L 285.375 343.488281 L 285.820312 343.488281 Z M 293.035156 330.992188 " fill-opacity="1" fill-rule="nonzero"/><path fill="#d2e7fb" d="M 308.484375 357.753906 L 308.699219 357.386719 L 308.476562 357 L 308.261719 357.371094 L 293.035156 357.371094 L 285.417969 344.183594 L 284.972656 344.183594 L 292.8125 357.753906 Z M 308.484375 357.753906 " fill-opacity="1" fill-rule="nonzero"/><path fill="#d2e7fb" d="M 315.878906 344.183594 L 308.878906 356.308594 L 309.101562 356.695312 L 316.324219 344.183594 L 309.949219 333.140625 C 309.84375 333.214844 309.730469 333.28125 309.617188 333.335938 Z M 315.878906 344.183594 " fill-opacity="1" fill-rule="nonzero"/><path fill="#d2e7fb" d="M 308.476562 357 L 308.699219 357.386719 L 309.097656 356.691406 L 308.875 356.304688 Z M 308.476562 357 " fill-opacity="1" fill-rule="nonzero"/><path fill="#d2e7fb" d="M 285.417969 344.183594 L 285.820312 343.488281 L 285.375 343.488281 L 284.972656 344.183594 Z M 285.417969 344.183594 " fill-opacity="1" fill-rule="nonzero"/><path fill="#d2e7fb" d="M 308.332031 333.644531 C 308.796875 333.644531 309.230469 333.53125 309.613281 333.335938 L 309.445312 333.039062 C 309.109375 333.210938 308.730469 333.308594 308.332031 333.308594 C 307.019531 333.308594 305.945312 332.285156 305.859375 330.992188 L 305.519531 330.992188 C 305.605469 332.46875 306.832031 333.644531 308.332031 333.644531 Z M 308.332031 333.644531 " fill-opacity="1" fill-rule="nonzero"/><path fill="#d2e7fb" d="M 308.332031 328.339844 C 309.703125 328.339844 310.820312 329.457031 310.820312 330.828125 C 310.820312 331.65625 310.40625 332.394531 309.777344 332.847656 L 309.945312 333.140625 C 310.675781 332.628906 311.15625 331.78125 311.15625 330.828125 C 311.15625 329.273438 309.890625 328.003906 308.332031 328.003906 C 306.847656 328.003906 305.632812 329.152344 305.523438 330.609375 L 305.859375 330.609375 C 305.96875 329.339844 307.035156 328.339844 308.332031 328.339844 Z M 308.332031 328.339844 " fill-opacity="1" fill-rule="nonzero"/><path fill="#d2e7fb" d="M 309.445312 333.042969 L 309.613281 333.335938 C 309.730469 333.28125 309.839844 333.214844 309.945312 333.140625 L 309.777344 332.847656 C 309.671875 332.917969 309.558594 332.984375 309.445312 333.042969 Z M 309.445312 333.042969 " fill-opacity="1" fill-rule="nonzero"/><path fill="#d2e7fb" d="M 312.714844 367.910156 C 312.714844 367.128906 313.089844 366.433594 313.671875 365.996094 L 313.414062 365.554688 C 312.683594 366.082031 312.203125 366.941406 312.203125 367.910156 C 312.203125 368.878906 312.683594 369.734375 313.414062 370.261719 L 313.671875 369.820312 C 313.089844 369.382812 312.714844 368.691406 312.714844 367.910156 Z M 312.714844 367.910156 " fill-opacity="1" fill-rule="nonzero"/><path fill="#d2e7fb" d="M 315.113281 365.003906 C 314.726562 365.003906 314.359375 365.078125 314.019531 365.214844 L 314.277344 365.664062 C 314.539062 365.5625 314.820312 365.507812 315.113281 365.507812 C 316.433594 365.507812 317.511719 366.585938 317.511719 367.910156 C 317.511719 369.230469 316.433594 370.308594 315.113281 370.308594 C 314.820312 370.308594 314.539062 370.253906 314.277344 370.15625 L 314.019531 370.601562 C 314.359375 370.738281 314.726562 370.8125 315.113281 370.8125 C 316.714844 370.8125 318.019531 369.511719 318.019531 367.910156 C 318.019531 366.304688 316.714844 365.003906 315.113281 365.003906 Z M 315.113281 365.003906 " fill-opacity="1" fill-rule="nonzero"/><path fill="#d2e7fb" d="M 313.671875 365.996094 C 313.855469 365.855469 314.058594 365.746094 314.277344 365.664062 L 314.019531 365.214844 C 313.804688 365.304688 313.601562 365.421875 313.414062 365.554688 Z M 313.671875 365.996094 " fill-opacity="1" fill-rule="nonzero"/><path fill="#d2e7fb" d="M 313.671875 369.824219 L 313.414062 370.265625 C 313.601562 370.398438 313.804688 370.515625 314.019531 370.605469 L 314.277344 370.15625 C 314.058594 370.074219 313.855469 369.960938 313.671875 369.824219 Z M 313.671875 369.824219 " fill-opacity="1" fill-rule="nonzero"/><path fill="#d2e7fb" d="M 262.886719 367.910156 C 262.886719 366.835938 262.296875 365.898438 261.429688 365.394531 L 261.175781 365.835938 C 261.890625 366.25 262.375 367.023438 262.375 367.910156 C 262.375 368.800781 261.890625 369.570312 261.175781 369.988281 L 261.429688 370.429688 C 262.296875 369.921875 262.886719 368.980469 262.886719 367.910156 Z M 262.886719 367.910156 " fill-opacity="1" fill-rule="nonzero"/><path fill="#d2e7fb" d="M 259.976562 370.3125 C 258.652344 370.3125 257.578125 369.234375 257.578125 367.910156 C 257.578125 366.589844 258.652344 365.511719 259.976562 365.511719 C 260.164062 365.511719 260.347656 365.539062 260.523438 365.578125 L 260.789062 365.125 C 260.53125 365.046875 260.257812 365.007812 259.980469 365.007812 C 258.375 365.007812 257.074219 366.308594 257.074219 367.910156 C 257.074219 369.515625 258.375 370.816406 259.980469 370.816406 C 260.257812 370.816406 260.535156 370.777344 260.789062 370.699219 L 260.523438 370.242188 C 260.347656 370.285156 260.164062 370.3125 259.976562 370.3125 Z M 259.976562 370.3125 " fill-opacity="1" fill-rule="nonzero"/><path fill="#d2e7fb" d="M 261.175781 365.835938 L 261.429688 365.394531 C 261.226562 365.28125 261.015625 365.183594 260.789062 365.121094 L 260.523438 365.578125 C 260.757812 365.628906 260.972656 365.714844 261.175781 365.835938 Z M 261.175781 365.835938 " fill-opacity="1" fill-rule="nonzero"/><path fill="#d2e7fb" d="M 261.175781 369.984375 C 260.972656 370.101562 260.753906 370.191406 260.523438 370.242188 L 260.789062 370.699219 C 261.015625 370.632812 261.230469 370.539062 261.429688 370.425781 Z M 261.175781 369.984375 " fill-opacity="1" fill-rule="nonzero"/><path fill="#d2e7fb" d="M 205.738281 549.640625 L 178.335938 549.640625 L 166.089844 528.425781 C 165.890625 528.542969 165.675781 528.636719 165.449219 528.699219 L 177.9375 550.332031 L 206.136719 550.332031 L 218.683594 528.605469 C 218.46875 528.515625 218.269531 528.402344 218.078125 528.265625 Z M 205.738281 549.640625 " fill-opacity="1" fill-rule="nonzero"/><path fill="#d2e7fb" d="M 178.339844 502.179688 L 189.636719 502.179688 L 190.039062 501.484375 L 177.941406 501.484375 L 165.453125 523.117188 C 165.679688 523.1875 165.894531 523.277344 166.09375 523.394531 Z M 178.339844 502.179688 " fill-opacity="1" fill-rule="nonzero"/><path fill="#d2e7fb" d="M 218.078125 523.554688 C 218.265625 523.421875 218.464844 523.308594 218.683594 523.21875 L 213.757812 514.691406 L 213.359375 515.386719 Z M 218.078125 523.554688 " fill-opacity="1" fill-rule="nonzero"/><path fill="#d2e7fb" d="M 213.136719 514.996094 L 213.539062 514.304688 L 206.136719 501.488281 L 190.484375 501.488281 L 190.082031 502.179688 L 205.738281 502.179688 Z M 213.136719 514.996094 " fill-opacity="1" fill-rule="nonzero"/><path fill="#d2e7fb" d="M 197.695312 488.992188 L 210.179688 488.992188 C 210.179688 488.9375 210.171875 488.882812 210.171875 488.824219 C 210.171875 488.75 210.179688 488.679688 210.179688 488.609375 L 197.472656 488.609375 L 190.035156 501.488281 L 190.484375 501.488281 Z M 197.695312 488.992188 " fill-opacity="1" fill-rule="nonzero"/><path fill="#d2e7fb" d="M 213.148438 515.757812 L 213.359375 515.382812 L 213.136719 514.996094 L 212.925781 515.371094 L 197.695312 515.371094 L 190.082031 502.179688 L 189.636719 502.179688 L 197.472656 515.757812 Z M 213.148438 515.757812 " fill-opacity="1" fill-rule="nonzero"/><path fill="#d2e7fb" d="M 220.539062 502.179688 L 213.539062 514.304688 L 213.761719 514.691406 L 220.984375 502.179688 L 214.605469 491.136719 C 214.5 491.210938 214.390625 491.277344 214.277344 491.335938 Z M 220.539062 502.179688 " fill-opacity="1" fill-rule="nonzero"/><path fill="#d2e7fb" d="M 213.136719 514.996094 L 213.359375 515.382812 L 213.761719 514.691406 L 213.539062 514.304688 Z M 213.136719 514.996094 " fill-opacity="1" fill-rule="nonzero"/><path fill="#d2e7fb" d="M 190.082031 502.179688 L 190.484375 501.488281 L 190.035156 501.488281 L 189.636719 502.179688 Z M 190.082031 502.179688 " fill-opacity="1" fill-rule="nonzero"/><path fill="#d2e7fb" d="M 212.996094 491.648438 C 213.457031 491.648438 213.890625 491.53125 214.277344 491.335938 L 214.105469 491.042969 C 213.773438 491.210938 213.394531 491.308594 212.996094 491.308594 C 211.683594 491.308594 210.605469 490.285156 210.519531 488.992188 L 210.179688 488.992188 C 210.269531 490.472656 211.496094 491.648438 212.996094 491.648438 Z M 212.996094 491.648438 " fill-opacity="1" fill-rule="nonzero"/><path fill="#d2e7fb" d="M 212.996094 486.339844 C 214.363281 486.339844 215.480469 487.453125 215.480469 488.824219 C 215.480469 489.65625 215.070312 490.390625 214.4375 490.84375 L 214.605469 491.136719 C 215.335938 490.628906 215.816406 489.78125 215.816406 488.824219 C 215.816406 487.269531 214.554688 486 212.996094 486 C 211.511719 486 210.292969 487.152344 210.183594 488.609375 L 210.523438 488.609375 C 210.632812 487.339844 211.699219 486.339844 212.996094 486.339844 Z M 212.996094 486.339844 " fill-opacity="1" fill-rule="nonzero"/><path fill="#d2e7fb" d="M 214.105469 491.042969 L 214.277344 491.335938 C 214.390625 491.277344 214.5 491.210938 214.605469 491.136719 L 214.4375 490.84375 C 214.332031 490.917969 214.226562 490.984375 214.105469 491.042969 Z M 214.105469 491.042969 " fill-opacity="1" fill-rule="nonzero"/><path fill="#d2e7fb" d="M 217.375 525.910156 C 217.375 525.128906 217.75 524.433594 218.332031 524 L 218.078125 523.554688 C 217.347656 524.085938 216.867188 524.941406 216.867188 525.910156 C 216.867188 526.878906 217.34375 527.734375 218.078125 528.265625 L 218.332031 527.820312 C 217.75 527.386719 217.375 526.691406 217.375 525.910156 Z M 217.375 525.910156 " fill-opacity="1" fill-rule="nonzero"/><path fill="#d2e7fb" d="M 219.773438 523 C 219.390625 523 219.019531 523.078125 218.683594 523.214844 L 218.941406 523.660156 C 219.203125 523.566406 219.480469 523.507812 219.773438 523.507812 C 221.097656 523.507812 222.171875 524.585938 222.171875 525.90625 C 222.171875 527.230469 221.097656 528.304688 219.773438 528.304688 C 219.480469 528.304688 219.203125 528.25 218.941406 528.152344 L 218.683594 528.597656 C 219.019531 528.734375 219.390625 528.8125 219.773438 528.8125 C 221.378906 528.8125 222.679688 527.507812 222.679688 525.90625 C 222.683594 524.308594 221.378906 523 219.773438 523 Z M 219.773438 523 " fill-opacity="1" fill-rule="nonzero"/><path fill="#d2e7fb" d="M 218.335938 523.996094 C 218.519531 523.855469 218.722656 523.742188 218.941406 523.660156 L 218.683594 523.214844 C 218.46875 523.304688 218.269531 523.417969 218.078125 523.550781 Z M 218.335938 523.996094 " fill-opacity="1" fill-rule="nonzero"/><path fill="#d2e7fb" d="M 218.335938 527.820312 L 218.078125 528.265625 C 218.269531 528.398438 218.46875 528.511719 218.683594 528.601562 L 218.941406 528.15625 C 218.71875 528.074219 218.515625 527.960938 218.335938 527.820312 Z M 218.335938 527.820312 " fill-opacity="1" fill-rule="nonzero"/><path fill="#d2e7fb" d="M 167.546875 525.910156 C 167.546875 524.835938 166.960938 523.898438 166.089844 523.394531 L 165.835938 523.835938 C 166.550781 524.25 167.035156 525.023438 167.035156 525.914062 C 167.035156 526.796875 166.550781 527.574219 165.835938 527.992188 L 166.089844 528.429688 C 166.960938 527.921875 167.546875 526.984375 167.546875 525.910156 Z M 167.546875 525.910156 " fill-opacity="1" fill-rule="nonzero"/><path fill="#d2e7fb" d="M 164.640625 528.308594 C 163.320312 528.308594 162.242188 527.230469 162.242188 525.910156 C 162.242188 524.585938 163.320312 523.511719 164.640625 523.511719 C 164.828125 523.511719 165.011719 523.535156 165.1875 523.578125 L 165.453125 523.121094 C 165.195312 523.046875 164.925781 523.003906 164.644531 523.003906 C 163.042969 523.003906 161.738281 524.308594 161.738281 525.910156 C 161.738281 527.511719 163.042969 528.816406 164.644531 528.816406 C 164.925781 528.816406 165.199219 528.773438 165.453125 528.699219 L 165.1875 528.242188 C 165.011719 528.285156 164.828125 528.308594 164.640625 528.308594 Z M 164.640625 528.308594 " fill-opacity="1" fill-rule="nonzero"/><path fill="#d2e7fb" d="M 165.839844 523.832031 L 166.09375 523.394531 C 165.894531 523.277344 165.679688 523.183594 165.453125 523.117188 L 165.1875 523.574219 C 165.417969 523.628906 165.636719 523.71875 165.839844 523.832031 Z M 165.839844 523.832031 " fill-opacity="1" fill-rule="nonzero"/><path fill="#d2e7fb" d="M 165.839844 527.984375 C 165.636719 528.101562 165.417969 528.1875 165.1875 528.242188 L 165.453125 528.699219 C 165.679688 528.628906 165.894531 528.539062 166.09375 528.421875 Z M 165.839844 527.984375 " fill-opacity="1" fill-rule="nonzero"/><path fill="#d2e7fb" d="M 269.734375 286.988281 C 269.238281 286.988281 268.78125 286.816406 268.417969 286.535156 L 267.910156 287.417969 C 268.289062 287.683594 268.726562 287.871094 269.199219 287.953125 L 269.757812 286.988281 C 269.75 286.988281 269.746094 286.988281 269.734375 286.988281 Z M 269.734375 286.988281 " fill-opacity="1" fill-rule="nonzero"/><path fill="#d2e7fb" d="M 268.417969 283.148438 C 268.78125 282.863281 269.238281 282.695312 269.734375 282.695312 C 269.746094 282.695312 269.75 282.695312 269.761719 282.695312 L 269.203125 281.730469 C 268.726562 281.8125 268.289062 281.996094 267.914062 282.265625 Z M 268.417969 283.148438 " fill-opacity="1" fill-rule="nonzero"/><path fill="#d2e7fb" d="M 190.136719 237.382812 L 241.996094 237.382812 L 267.910156 282.265625 C 268.289062 281.996094 268.726562 281.808594 269.199219 281.730469 L 242.800781 235.996094 L 190.207031 235.996094 C 190.238281 236.171875 190.257812 236.355469 190.257812 236.539062 C 190.257812 236.832031 190.210938 237.117188 190.136719 237.382812 Z M 190.136719 237.382812 " fill-opacity="1" fill-rule="nonzero"/><path fill="#d2e7fb" d="M 241.996094 332.296875 L 187.199219 332.296875 L 159.796875 284.84375 L 185.980469 239.496094 C 185.539062 239.332031 185.144531 239.066406 184.820312 238.730469 L 158.199219 284.84375 L 186.398438 333.683594 L 242.796875 333.683594 L 269.199219 287.953125 C 268.726562 287.871094 268.285156 287.683594 267.910156 287.417969 Z M 241.996094 332.296875 " fill-opacity="1" fill-rule="nonzero"/><path fill="#d2e7fb" d="M 267.589844 284.84375 C 267.589844 284.15625 267.914062 283.542969 268.421875 283.152344 L 267.914062 282.269531 C 267.105469 282.84375 266.578125 283.78125 266.578125 284.84375 C 266.578125 285.902344 267.105469 286.847656 267.914062 287.417969 L 268.421875 286.535156 C 267.914062 286.140625 267.589844 285.527344 267.589844 284.84375 Z M 267.589844 284.84375 " fill-opacity="1" fill-rule="nonzero"/><path fill="#d2e7fb" d="M 269.734375 281.683594 C 269.554688 281.683594 269.375 281.703125 269.199219 281.730469 L 269.757812 282.695312 C 270.929688 282.707031 271.878906 283.664062 271.878906 284.839844 C 271.878906 286.015625 270.929688 286.972656 269.757812 286.984375 L 269.199219 287.949219 C 269.375 287.976562 269.550781 287.996094 269.734375 287.996094 C 271.476562 287.996094 272.894531 286.578125 272.894531 284.835938 C 272.894531 283.101562 271.476562 281.683594 269.734375 281.683594 Z M 269.734375 281.683594 " fill-opacity="1" fill-rule="nonzero"/><path fill="#d2e7fb" d="M 190.136719 237.382812 L 189.066406 237.382812 C 188.738281 238.148438 187.976562 238.683594 187.09375 238.683594 C 186.886719 238.683594 186.683594 238.652344 186.496094 238.597656 L 185.980469 239.492188 C 186.328125 239.625 186.699219 239.699219 187.09375 239.699219 C 188.546875 239.699219 189.765625 238.71875 190.136719 237.382812 Z M 190.136719 237.382812 " fill-opacity="1" fill-rule="nonzero"/><path fill="#d2e7fb" d="M 184.949219 236.539062 C 184.949219 235.359375 185.910156 234.390625 187.097656 234.390625 C 188.09375 234.390625 188.929688 235.074219 189.167969 235.996094 L 190.207031 235.996094 C 189.945312 234.511719 188.652344 233.378906 187.097656 233.378906 C 185.351562 233.378906 183.933594 234.796875 183.933594 236.539062 C 183.933594 237.390625 184.277344 238.160156 184.824219 238.730469 L 185.363281 237.796875 C 185.101562 237.445312 184.949219 237.011719 184.949219 236.539062 Z M 184.949219 236.539062 " fill-opacity="1" fill-rule="nonzero"/><path fill="#d2e7fb" d="M 185.980469 239.492188 L 186.496094 238.597656 C 186.035156 238.464844 185.636719 238.175781 185.359375 237.796875 L 184.820312 238.730469 C 185.144531 239.066406 185.539062 239.328125 185.980469 239.492188 Z M 185.980469 239.492188 " fill-opacity="1" fill-rule="nonzero"/><path fill="#d2e7fb" d="M 189.238281 236.539062 C 189.238281 236.839844 189.175781 237.125 189.066406 237.382812 L 190.136719 237.382812 C 190.210938 237.113281 190.253906 236.832031 190.253906 236.539062 C 190.253906 236.355469 190.234375 236.175781 190.203125 235.996094 L 189.167969 235.996094 C 189.214844 236.171875 189.238281 236.351562 189.238281 236.539062 Z M 189.238281 236.539062 " fill-opacity="1" fill-rule="nonzero"/><path fill="#d2e7fb" d="M 112.328125 392.464844 C 111.832031 392.464844 111.375 392.292969 111.011719 392.015625 L 110.503906 392.898438 C 110.882812 393.164062 111.320312 393.351562 111.792969 393.433594 L 112.351562 392.464844 C 112.34375 392.464844 112.339844 392.464844 112.328125 392.464844 Z M 112.328125 392.464844 " fill-opacity="1" fill-rule="nonzero"/><path fill="#d2e7fb" d="M 111.011719 388.628906 C 111.375 388.34375 111.832031 388.175781 112.328125 388.175781 C 112.339844 388.175781 112.34375 388.175781 112.355469 388.175781 L 111.796875 387.210938 C 111.324219 387.292969 110.882812 387.476562 110.507812 387.746094 Z M 111.011719 388.628906 " fill-opacity="1" fill-rule="nonzero"/><path fill="#d2e7fb" d="M 32.734375 342.863281 L 84.59375 342.863281 L 110.507812 387.746094 C 110.886719 387.476562 111.324219 387.289062 111.796875 387.210938 L 85.394531 341.476562 L 32.800781 341.476562 C 32.832031 341.652344 32.851562 341.835938 32.851562 342.019531 C 32.851562 342.3125 32.804688 342.59375 32.734375 342.863281 Z M 32.734375 342.863281 " fill-opacity="1" fill-rule="nonzero"/><g clip-path="url(#f0edf0194c)"><path fill="#d2e7fb" d="M 84.59375 437.777344 L 29.792969 437.777344 L 2.394531 390.324219 L 28.574219 344.976562 C 28.132812 344.808594 27.738281 344.546875 27.414062 344.210938 L 0.792969 390.324219 L 28.992188 439.164062 L 85.390625 439.164062 L 111.792969 393.433594 C 111.320312 393.347656 110.878906 393.164062 110.503906 392.898438 Z M 84.59375 437.777344 " fill-opacity="1" fill-rule="nonzero"/></g><path fill="#d2e7fb" d="M 110.183594 390.320312 C 110.183594 389.632812 110.511719 389.019531 111.015625 388.628906 L 110.507812 387.746094 C 109.699219 388.316406 109.171875 389.257812 109.171875 390.320312 C 109.171875 391.382812 109.699219 392.320312 110.507812 392.894531 L 111.015625 392.011719 C 110.511719 391.617188 110.183594 391.007812 110.183594 390.320312 Z M 110.183594 390.320312 " fill-opacity="1" fill-rule="nonzero"/><path fill="#d2e7fb" d="M 112.328125 387.160156 C 112.148438 387.160156 111.96875 387.179688 111.792969 387.207031 L 112.351562 388.171875 C 113.523438 388.183594 114.472656 389.140625 114.472656 390.316406 C 114.472656 391.492188 113.523438 392.449219 112.351562 392.460938 L 111.792969 393.425781 C 111.96875 393.453125 112.144531 393.472656 112.328125 393.472656 C 114.070312 393.472656 115.488281 392.054688 115.488281 390.3125 C 115.488281 388.578125 114.070312 387.160156 112.328125 387.160156 Z M 112.328125 387.160156 " fill-opacity="1" fill-rule="nonzero"/><path fill="#d2e7fb" d="M 32.734375 342.863281 L 31.664062 342.863281 C 31.335938 343.628906 30.574219 344.164062 29.691406 344.164062 C 29.484375 344.164062 29.28125 344.132812 29.09375 344.078125 L 28.578125 344.972656 C 28.925781 345.101562 29.296875 345.179688 29.691406 345.179688 C 31.140625 345.179688 32.359375 344.195312 32.734375 342.863281 Z M 32.734375 342.863281 " fill-opacity="1" fill-rule="nonzero"/><path fill="#d2e7fb" d="M 27.542969 342.019531 C 27.542969 340.835938 28.503906 339.871094 29.691406 339.871094 C 30.6875 339.871094 31.527344 340.554688 31.765625 341.476562 L 32.800781 341.476562 C 32.542969 339.992188 31.25 338.859375 29.691406 338.859375 C 27.949219 338.859375 26.53125 340.277344 26.53125 342.019531 C 26.53125 342.871094 26.871094 343.640625 27.417969 344.210938 L 27.957031 343.277344 C 27.695312 342.925781 27.542969 342.488281 27.542969 342.019531 Z M 27.542969 342.019531 " fill-opacity="1" fill-rule="nonzero"/><path fill="#d2e7fb" d="M 28.578125 344.972656 L 29.09375 344.078125 C 28.632812 343.945312 28.234375 343.65625 27.957031 343.277344 L 27.417969 344.210938 C 27.742188 344.542969 28.136719 344.808594 28.578125 344.972656 Z M 28.578125 344.972656 " fill-opacity="1" fill-rule="nonzero"/><path fill="#d2e7fb" d="M 31.835938 342.019531 C 31.835938 342.320312 31.769531 342.605469 31.660156 342.863281 L 32.730469 342.863281 C 32.804688 342.59375 32.847656 342.3125 32.847656 342.019531 C 32.847656 341.835938 32.828125 341.65625 32.796875 341.476562 L 31.761719 341.476562 C 31.808594 341.648438 31.835938 341.832031 31.835938 342.019531 Z M 31.835938 342.019531 " fill-opacity="1" fill-rule="nonzero"/><path fill="#d2e7fb" d="M 153.84375 60.933594 L 179.9375 106.128906 L 152.535156 153.585938 L 97.738281 153.585938 L 70.335938 106.128906 L 97.738281 58.671875 L 149.695312 58.671875 C 149.640625 58.445312 149.613281 58.207031 149.613281 57.964844 C 149.613281 57.730469 149.636719 57.503906 149.683594 57.289062 L 96.941406 57.289062 L 68.742188 106.128906 L 96.941406 154.972656 L 153.339844 154.972656 L 181.539062 106.128906 L 155.015625 60.191406 C 154.6875 60.515625 154.289062 60.769531 153.84375 60.933594 Z M 153.84375 60.933594 " fill-opacity="1" fill-rule="nonzero"/><path fill="#d2e7fb" d="M 239.355469 97.394531 L 187.199219 97.394531 L 161.175781 52.3125 C 160.828125 52.617188 160.414062 52.847656 159.957031 52.976562 L 186.402344 98.777344 L 239.417969 98.777344 C 239.347656 98.515625 239.304688 98.234375 239.304688 97.949219 C 239.304688 97.761719 239.324219 97.574219 239.355469 97.394531 Z M 239.355469 97.394531 " fill-opacity="1" fill-rule="nonzero"/><path fill="#d2e7fb" d="M 243.417969 94.933594 C 243.871094 95.078125 244.273438 95.320312 244.613281 95.632812 L 269.179688 53.085938 C 268.6875 53.050781 268.222656 52.902344 267.820312 52.671875 Z M 243.417969 94.933594 " fill-opacity="1" fill-rule="nonzero"/><path fill="#d2e7fb" d="M 187.199219 2.480469 L 242 2.480469 L 267.820312 47.203125 C 268.222656 46.96875 268.6875 46.820312 269.179688 46.789062 L 242.800781 1.097656 L 186.402344 1.097656 L 159.957031 46.898438 C 160.414062 47.027344 160.828125 47.253906 161.175781 47.5625 Z M 187.199219 2.480469 " fill-opacity="1" fill-rule="nonzero"/><path fill="#d2e7fb" d="M 152.777344 55.816406 C 153.957031 55.816406 154.921875 56.777344 154.921875 57.964844 C 154.921875 58.449219 154.757812 58.898438 154.480469 59.261719 L 155.015625 60.191406 C 155.582031 59.621094 155.9375 58.828125 155.9375 57.964844 C 155.9375 56.21875 154.519531 54.800781 152.777344 54.800781 C 151.265625 54.800781 150 55.871094 149.6875 57.289062 L 150.738281 57.289062 C 151.023438 56.429688 151.828125 55.816406 152.777344 55.816406 Z M 152.777344 55.816406 " fill-opacity="1" fill-rule="nonzero"/><path fill="#d2e7fb" d="M 152.777344 60.105469 C 151.84375 60.105469 151.046875 59.503906 150.753906 58.671875 L 149.699219 58.671875 C 150.023438 60.074219 151.277344 61.121094 152.777344 61.121094 C 153.152344 61.121094 153.507812 61.050781 153.84375 60.929688 L 153.324219 60.03125 C 153.148438 60.078125 152.96875 60.105469 152.777344 60.105469 Z M 152.777344 60.105469 " fill-opacity="1" fill-rule="nonzero"/><path fill="#d2e7fb" d="M 149.699219 58.671875 L 150.753906 58.671875 C 150.671875 58.449219 150.628906 58.207031 150.628906 57.960938 C 150.628906 57.722656 150.671875 57.496094 150.738281 57.285156 L 149.6875 57.285156 C 149.640625 57.5 149.617188 57.726562 149.617188 57.960938 C 149.617188 58.207031 149.644531 58.441406 149.699219 58.671875 Z M 149.699219 58.671875 " fill-opacity="1" fill-rule="nonzero"/><path fill="#d2e7fb" d="M 153.324219 60.035156 L 153.84375 60.933594 C 154.289062 60.773438 154.6875 60.519531 155.015625 60.191406 L 154.480469 59.261719 C 154.195312 59.632812 153.792969 59.910156 153.324219 60.035156 Z M 153.324219 60.035156 " fill-opacity="1" fill-rule="nonzero"/><path fill="#d2e7fb" d="M 159.097656 52.085938 C 157.914062 52.085938 156.949219 51.121094 156.949219 49.9375 C 156.949219 48.753906 157.910156 47.789062 159.097656 47.789062 C 159.207031 47.789062 159.316406 47.800781 159.425781 47.820312 L 159.957031 46.898438 C 159.683594 46.820312 159.398438 46.777344 159.101562 46.777344 C 157.359375 46.777344 155.941406 48.195312 155.941406 49.9375 C 155.941406 51.679688 157.359375 53.097656 159.101562 53.097656 C 159.398438 53.097656 159.6875 53.054688 159.957031 52.976562 L 159.425781 52.054688 C 159.316406 52.070312 159.207031 52.085938 159.097656 52.085938 Z M 159.097656 52.085938 " fill-opacity="1" fill-rule="nonzero"/><path fill="#d2e7fb" d="M 162.257812 49.9375 C 162.257812 48.992188 161.835938 48.140625 161.175781 47.5625 L 160.652344 48.460938 C 161.019531 48.847656 161.242188 49.367188 161.242188 49.9375 C 161.242188 50.507812 161.015625 51.027344 160.652344 51.414062 L 161.175781 52.3125 C 161.835938 51.734375 162.257812 50.882812 162.257812 49.9375 Z M 162.257812 49.9375 " fill-opacity="1" fill-rule="nonzero"/><path fill="#d2e7fb" d="M 160.652344 51.414062 C 160.328125 51.75 159.902344 51.984375 159.421875 52.054688 L 159.953125 52.976562 C 160.410156 52.847656 160.824219 52.621094 161.171875 52.3125 Z M 160.652344 51.414062 " fill-opacity="1" fill-rule="nonzero"/><path fill="#d2e7fb" d="M 160.652344 48.460938 L 161.175781 47.5625 C 160.828125 47.257812 160.414062 47.027344 159.957031 46.898438 L 159.425781 47.820312 C 159.902344 47.890625 160.332031 48.125 160.652344 48.460938 Z M 160.652344 48.460938 " fill-opacity="1" fill-rule="nonzero"/><path fill="#d2e7fb" d="M 239.355469 97.394531 L 240.394531 97.394531 C 240.640625 96.480469 241.476562 95.800781 242.464844 95.800781 C 242.613281 95.800781 242.753906 95.816406 242.890625 95.84375 L 243.417969 94.933594 C 243.117188 94.839844 242.796875 94.789062 242.464844 94.789062 C 240.910156 94.789062 239.617188 95.914062 239.355469 97.394531 Z M 239.355469 97.394531 " fill-opacity="1" fill-rule="nonzero"/><path fill="#d2e7fb" d="M 244.609375 97.949219 C 244.609375 99.128906 243.648438 100.09375 242.460938 100.09375 C 241.574219 100.09375 240.808594 99.554688 240.484375 98.78125 L 239.417969 98.78125 C 239.78125 100.121094 241.007812 101.113281 242.460938 101.113281 C 244.207031 101.113281 245.621094 99.695312 245.621094 97.949219 C 245.621094 97.039062 245.230469 96.21875 244.609375 95.640625 L 244.085938 96.550781 C 244.414062 96.925781 244.609375 97.414062 244.609375 97.949219 Z M 244.609375 97.949219 " fill-opacity="1" fill-rule="nonzero"/><path fill="#d2e7fb" d="M 242.890625 95.84375 C 243.367188 95.941406 243.78125 96.195312 244.085938 96.550781 L 244.613281 95.636719 C 244.273438 95.324219 243.867188 95.082031 243.417969 94.9375 Z M 242.890625 95.84375 " fill-opacity="1" fill-rule="nonzero"/><path fill="#d2e7fb" d="M 240.316406 97.949219 C 240.316406 97.757812 240.347656 97.570312 240.394531 97.394531 L 239.355469 97.394531 C 239.324219 97.574219 239.304688 97.757812 239.304688 97.949219 C 239.304688 98.238281 239.347656 98.515625 239.417969 98.777344 L 240.488281 98.777344 C 240.378906 98.523438 240.316406 98.242188 240.316406 97.949219 Z M 240.316406 97.949219 " fill-opacity="1" fill-rule="nonzero"/><path fill="#d2e7fb" d="M 269.398438 46.777344 C 269.324219 46.777344 269.25 46.785156 269.179688 46.785156 L 269.78125 47.824219 C 270.78125 48.007812 271.542969 48.882812 271.542969 49.933594 C 271.542969 50.984375 270.78125 51.863281 269.78125 52.042969 L 269.179688 53.082031 C 269.253906 53.089844 269.324219 53.089844 269.398438 53.089844 C 271.140625 53.089844 272.558594 51.675781 272.558594 49.929688 C 272.558594 48.1875 271.140625 46.777344 269.398438 46.777344 Z M 269.398438 46.777344 " fill-opacity="1" fill-rule="nonzero"/><path fill="#d2e7fb" d="M 267.25 49.9375 C 267.25 49.144531 267.683594 48.453125 268.324219 48.082031 L 267.816406 47.203125 C 266.875 47.753906 266.234375 48.773438 266.234375 49.9375 C 266.234375 51.105469 266.871094 52.125 267.816406 52.671875 L 268.324219 51.796875 C 267.683594 51.421875 267.25 50.730469 267.25 49.9375 Z M 267.25 49.9375 " fill-opacity="1" fill-rule="nonzero"/><path fill="#d2e7fb" d="M 268.328125 48.082031 C 268.640625 47.898438 269.007812 47.789062 269.398438 47.789062 C 269.527344 47.789062 269.65625 47.804688 269.78125 47.824219 L 269.179688 46.785156 C 268.6875 46.820312 268.222656 46.96875 267.820312 47.199219 Z M 268.328125 48.082031 " fill-opacity="1" fill-rule="nonzero"/><path fill="#d2e7fb" d="M 269.398438 52.085938 C 269.003906 52.085938 268.640625 51.980469 268.328125 51.796875 L 267.820312 52.671875 C 268.222656 52.90625 268.6875 53.054688 269.179688 53.085938 L 269.78125 52.046875 C 269.65625 52.070312 269.527344 52.085938 269.398438 52.085938 Z M 269.398438 52.085938 " fill-opacity="1" fill-rule="nonzero"/><path fill="#d2e7fb" d="M 535.765625 531.640625 L 485.734375 444.988281 L 535.765625 358.335938 L 635.820312 358.335938 L 685.851562 444.988281 L 635.820312 531.640625 L 535.765625 531.640625 M 534.203125 534.347656 L 637.382812 534.347656 L 688.972656 444.988281 L 637.382812 355.628906 L 534.203125 355.628906 L 482.613281 444.988281 Z M 534.203125 534.347656 " fill-opacity="1" fill-rule="nonzero"/><path fill="#d2e7fb" d="M 365.355469 237.121094 L 315.328125 150.464844 L 365.355469 63.8125 L 465.414062 63.8125 L 515.445312 150.464844 L 465.414062 237.121094 L 365.355469 237.121094 M 363.796875 239.824219 L 466.976562 239.824219 L 518.566406 150.464844 L 466.976562 61.109375 L 363.796875 61.109375 L 312.203125 150.464844 Z M 363.796875 239.824219 " fill-opacity="1" fill-rule="nonzero"/><path fill="#d2e7fb" d="M 493.855469 444.988281 C 493.855469 445.464844 493.808594 445.941406 493.714844 446.410156 C 493.621094 446.878906 493.484375 447.335938 493.300781 447.777344 C 493.117188 448.21875 492.890625 448.640625 492.625 449.039062 C 492.359375 449.4375 492.058594 449.804688 491.71875 450.144531 C 491.382812 450.480469 491.011719 450.785156 490.617188 451.050781 C 490.21875 451.316406 489.796875 451.539062 489.355469 451.722656 C 488.914062 451.90625 488.457031 452.042969 487.988281 452.136719 C 487.519531 452.230469 487.042969 452.277344 486.566406 452.277344 C 486.085938 452.277344 485.613281 452.230469 485.144531 452.136719 C 484.675781 452.042969 484.21875 451.90625 483.777344 451.722656 C 483.332031 451.539062 482.914062 451.316406 482.515625 451.050781 C 482.117188 450.785156 481.75 450.480469 481.410156 450.144531 C 481.074219 449.804688 480.769531 449.4375 480.503906 449.039062 C 480.238281 448.640625 480.015625 448.21875 479.832031 447.777344 C 479.648438 447.335938 479.507812 446.878906 479.417969 446.410156 C 479.324219 445.941406 479.277344 445.464844 479.277344 444.988281 C 479.277344 444.507812 479.324219 444.035156 479.414062 443.566406 C 479.507812 443.097656 479.648438 442.640625 479.832031 442.199219 C 480.015625 441.757812 480.238281 441.335938 480.503906 440.9375 C 480.769531 440.539062 481.074219 440.171875 481.410156 439.832031 C 481.75 439.496094 482.117188 439.191406 482.515625 438.925781 C 482.914062 438.660156 483.332031 438.4375 483.777344 438.253906 C 484.21875 438.070312 484.675781 437.933594 485.144531 437.839844 C 485.613281 437.746094 486.085938 437.699219 486.566406 437.699219 C 487.042969 437.699219 487.519531 437.746094 487.988281 437.839844 C 488.457031 437.933594 488.914062 438.070312 489.355469 438.253906 C 489.796875 438.4375 490.21875 438.660156 490.617188 438.925781 C 491.011719 439.191406 491.382812 439.496094 491.71875 439.832031 C 492.058594 440.171875 492.359375 440.539062 492.625 440.9375 C 492.890625 441.335938 493.117188 441.757812 493.300781 442.199219 C 493.484375 442.640625 493.621094 443.097656 493.714844 443.566406 C 493.808594 444.035156 493.855469 444.507812 493.855469 444.988281 Z M 493.855469 444.988281 " fill-opacity="1" fill-rule="nonzero"/><path fill="#d2e7fb" d="M 542.859375 533.222656 C 542.859375 533.699219 542.8125 534.175781 542.71875 534.644531 C 542.625 535.113281 542.488281 535.570312 542.304688 536.011719 C 542.121094 536.453125 541.898438 536.875 541.628906 537.273438 C 541.363281 537.667969 541.0625 538.039062 540.722656 538.375 C 540.386719 538.714844 540.019531 539.015625 539.621094 539.28125 C 539.222656 539.546875 538.800781 539.773438 538.359375 539.957031 C 537.917969 540.140625 537.460938 540.277344 536.992188 540.371094 C 536.523438 540.464844 536.046875 540.511719 535.570312 540.511719 C 535.089844 540.511719 534.617188 540.464844 534.148438 540.371094 C 533.679688 540.277344 533.222656 540.140625 532.78125 539.957031 C 532.335938 539.773438 531.917969 539.546875 531.519531 539.28125 C 531.121094 539.015625 530.753906 538.714844 530.414062 538.375 C 530.078125 538.039062 529.773438 537.667969 529.507812 537.273438 C 529.242188 536.875 529.019531 536.453125 528.835938 536.011719 C 528.652344 535.570312 528.511719 535.113281 528.421875 534.644531 C 528.328125 534.175781 528.28125 533.699219 528.28125 533.222656 C 528.28125 532.742188 528.328125 532.269531 528.421875 531.800781 C 528.511719 531.328125 528.652344 530.875 528.835938 530.433594 C 529.019531 529.988281 529.242188 529.570312 529.507812 529.171875 C 529.773438 528.773438 530.078125 528.40625 530.414062 528.066406 C 530.753906 527.730469 531.121094 527.425781 531.519531 527.160156 C 531.917969 526.894531 532.335938 526.671875 532.78125 526.488281 C 533.222656 526.304688 533.679688 526.164062 534.148438 526.070312 C 534.617188 525.980469 535.089844 525.933594 535.570312 525.933594 C 536.046875 525.933594 536.523438 525.980469 536.992188 526.070312 C 537.460938 526.164062 537.917969 526.304688 538.359375 526.488281 C 538.800781 526.671875 539.222656 526.894531 539.621094 527.160156 C 540.019531 527.425781 540.386719 527.730469 540.722656 528.066406 C 541.0625 528.40625 541.363281 528.773438 541.628906 529.171875 C 541.898438 529.570312 542.121094 529.988281 542.304688 530.433594 C 542.488281 530.875 542.625 531.328125 542.71875 531.800781 C 542.8125 532.269531 542.859375 532.742188 542.859375 533.222656 Z M 542.859375 533.222656 " fill-opacity="1" fill-rule="nonzero"/><path fill="#d2e7fb" d="M 535.765625 338.113281 L 485.734375 251.460938 L 535.765625 164.804688 L 635.820312 164.804688 L 685.851562 251.460938 L 635.820312 338.113281 L 535.765625 338.113281 M 534.203125 340.816406 L 637.382812 340.816406 L 688.972656 251.460938 L 637.382812 162.101562 L 534.203125 162.101562 L 482.613281 251.460938 Z M 534.203125 340.816406 " fill-opacity="1" fill-rule="nonzero"/><path fill="#d2e7fb" d="M 543.167969 338.4375 C 543.167969 338.917969 543.121094 339.390625 543.027344 339.859375 C 542.933594 340.328125 542.796875 340.785156 542.613281 341.226562 C 542.429688 341.667969 542.207031 342.089844 541.941406 342.488281 C 541.675781 342.886719 541.371094 343.253906 541.035156 343.59375 C 540.695312 343.929688 540.328125 344.234375 539.929688 344.5 C 539.53125 344.765625 539.109375 344.988281 538.667969 345.171875 C 538.226562 345.355469 537.769531 345.496094 537.300781 345.585938 C 536.832031 345.679688 536.359375 345.726562 535.878906 345.726562 C 535.398438 345.726562 534.925781 345.679688 534.457031 345.585938 C 533.988281 345.496094 533.53125 345.355469 533.089844 345.171875 C 532.648438 344.988281 532.226562 344.765625 531.828125 344.5 C 531.429688 344.234375 531.0625 343.929688 530.722656 343.59375 C 530.386719 343.253906 530.082031 342.886719 529.816406 342.488281 C 529.550781 342.089844 529.328125 341.667969 529.144531 341.226562 C 528.960938 340.785156 528.824219 340.328125 528.730469 339.859375 C 528.636719 339.390625 528.589844 338.917969 528.589844 338.4375 C 528.589844 337.960938 528.636719 337.484375 528.730469 337.015625 C 528.824219 336.546875 528.960938 336.089844 529.144531 335.648438 C 529.328125 335.207031 529.550781 334.785156 529.816406 334.386719 C 530.082031 333.988281 530.386719 333.621094 530.722656 333.285156 C 531.0625 332.945312 531.429688 332.644531 531.828125 332.375 C 532.226562 332.109375 532.648438 331.886719 533.089844 331.703125 C 533.53125 331.519531 533.988281 331.382812 534.457031 331.289062 C 534.925781 331.195312 535.398438 331.148438 535.878906 331.148438 C 536.359375 331.148438 536.832031 331.195312 537.300781 331.289062 C 537.769531 331.382812 538.226562 331.519531 538.667969 331.703125 C 539.109375 331.886719 539.53125 332.109375 539.929688 332.375 C 540.328125 332.644531 540.695312 332.945312 541.035156 333.285156 C 541.371094 333.621094 541.675781 333.988281 541.941406 334.386719 C 542.207031 334.785156 542.429688 335.207031 542.613281 335.648438 C 542.796875 336.089844 542.933594 336.546875 543.027344 337.015625 C 543.121094 337.484375 543.167969 337.960938 543.167969 338.4375 Z M 543.167969 338.4375 " fill-opacity="1" fill-rule="nonzero"/><path fill="#d2e7fb" d="M 493.289062 251.464844 C 493.289062 251.941406 493.242188 252.414062 493.148438 252.886719 C 493.054688 253.355469 492.917969 253.808594 492.734375 254.253906 C 492.550781 254.695312 492.324219 255.113281 492.058594 255.511719 C 491.792969 255.910156 491.492188 256.277344 491.152344 256.617188 C 490.816406 256.957031 490.445312 257.257812 490.046875 257.523438 C 489.648438 257.789062 489.230469 258.015625 488.789062 258.199219 C 488.347656 258.378906 487.890625 258.519531 487.421875 258.613281 C 486.949219 258.707031 486.476562 258.753906 486 258.753906 C 485.519531 258.753906 485.046875 258.707031 484.578125 258.613281 C 484.105469 258.519531 483.652344 258.378906 483.207031 258.199219 C 482.765625 258.015625 482.347656 257.789062 481.949219 257.523438 C 481.550781 257.257812 481.183594 256.957031 480.84375 256.617188 C 480.503906 256.277344 480.203125 255.910156 479.9375 255.511719 C 479.671875 255.113281 479.445312 254.695312 479.261719 254.253906 C 479.082031 253.808594 478.941406 253.355469 478.847656 252.886719 C 478.753906 252.414062 478.707031 251.941406 478.707031 251.464844 C 478.707031 250.984375 478.753906 250.511719 478.847656 250.039062 C 478.941406 249.570312 479.082031 249.117188 479.261719 248.671875 C 479.445312 248.230469 479.671875 247.8125 479.9375 247.414062 C 480.203125 247.015625 480.503906 246.648438 480.84375 246.308594 C 481.183594 245.96875 481.550781 245.667969 481.949219 245.402344 C 482.347656 245.136719 482.765625 244.910156 483.207031 244.726562 C 483.652344 244.546875 484.105469 244.40625 484.578125 244.3125 C 485.046875 244.21875 485.519531 244.171875 486 244.171875 C 486.476562 244.171875 486.949219 244.21875 487.421875 244.3125 C 487.890625 244.40625 488.347656 244.546875 488.789062 244.726562 C 489.230469 244.910156 489.648438 245.136719 490.046875 245.402344 C 490.445312 245.667969 490.816406 245.96875 491.152344 246.308594 C 491.492188 246.648438 491.792969 247.015625 492.058594 247.414062 C 492.324219 247.8125 492.550781 248.230469 492.734375 248.671875 C 492.917969 249.117188 493.054688 249.570312 493.148438 250.039062 C 493.242188 250.511719 493.289062 250.984375 493.289062 251.464844 Z M 493.289062 251.464844 " fill-opacity="1" fill-rule="nonzero"/><path fill="#d2e7fb" d="M 473.878906 238.5625 C 473.878906 239.042969 473.832031 239.515625 473.738281 239.984375 C 473.644531 240.453125 473.507812 240.910156 473.324219 241.351562 C 473.140625 241.792969 472.917969 242.214844 472.648438 242.613281 C 472.382812 243.011719 472.082031 243.378906 471.742188 243.71875 C 471.40625 244.054688 471.035156 244.359375 470.640625 244.625 C 470.242188 244.890625 469.820312 245.113281 469.378906 245.296875 C 468.9375 245.480469 468.480469 245.617188 468.011719 245.710938 C 467.542969 245.804688 467.066406 245.851562 466.589844 245.851562 C 466.109375 245.851562 465.636719 245.804688 465.167969 245.710938 C 464.699219 245.617188 464.242188 245.480469 463.800781 245.296875 C 463.355469 245.113281 462.9375 244.890625 462.539062 244.625 C 462.140625 244.359375 461.773438 244.054688 461.433594 243.71875 C 461.097656 243.378906 460.792969 243.011719 460.527344 242.613281 C 460.261719 242.214844 460.039062 241.792969 459.855469 241.351562 C 459.671875 240.910156 459.53125 240.453125 459.441406 239.984375 C 459.347656 239.515625 459.300781 239.042969 459.300781 238.5625 C 459.300781 238.085938 459.347656 237.609375 459.441406 237.140625 C 459.53125 236.671875 459.671875 236.214844 459.855469 235.773438 C 460.039062 235.332031 460.261719 234.910156 460.527344 234.511719 C 460.792969 234.113281 461.097656 233.746094 461.433594 233.40625 C 461.773438 233.070312 462.140625 232.765625 462.539062 232.5 C 462.9375 232.234375 463.355469 232.011719 463.800781 231.828125 C 464.242188 231.644531 464.699219 231.507812 465.167969 231.414062 C 465.636719 231.320312 466.109375 231.273438 466.589844 231.273438 C 467.066406 231.273438 467.542969 231.320312 468.011719 231.414062 C 468.480469 231.507812 468.9375 231.644531 469.378906 231.828125 C 469.820312 232.011719 470.242188 232.234375 470.640625 232.5 C 471.035156 232.765625 471.40625 233.070312 471.742188 233.40625 C 472.082031 233.746094 472.382812 234.113281 472.648438 234.511719 C 472.917969 234.910156 473.140625 235.332031 473.324219 235.773438 C 473.507812 236.214844 473.644531 236.671875 473.738281 237.140625 C 473.832031 237.609375 473.878906 238.085938 473.878906 238.5625 Z M 473.878906 238.5625 " fill-opacity="1" fill-rule="nonzero"/><path fill="#d2e7fb" d="M 372.320312 238.394531 C 372.320312 238.871094 372.273438 239.347656 372.179688 239.816406 C 372.085938 240.285156 371.949219 240.742188 371.765625 241.183594 C 371.582031 241.625 371.359375 242.046875 371.09375 242.445312 C 370.828125 242.839844 370.523438 243.210938 370.1875 243.546875 C 369.847656 243.886719 369.480469 244.1875 369.082031 244.453125 C 368.683594 244.722656 368.261719 244.945312 367.820312 245.128906 C 367.378906 245.3125 366.921875 245.449219 366.453125 245.542969 C 365.984375 245.636719 365.511719 245.683594 365.03125 245.683594 C 364.554688 245.683594 364.078125 245.636719 363.609375 245.542969 C 363.140625 245.449219 362.683594 245.3125 362.242188 245.128906 C 361.800781 244.945312 361.378906 244.722656 360.980469 244.453125 C 360.582031 244.1875 360.214844 243.886719 359.878906 243.546875 C 359.539062 243.210938 359.238281 242.839844 358.96875 242.445312 C 358.703125 242.046875 358.480469 241.625 358.296875 241.183594 C 358.113281 240.742188 357.976562 240.285156 357.882812 239.816406 C 357.789062 239.347656 357.742188 238.871094 357.742188 238.394531 C 357.742188 237.914062 357.789062 237.441406 357.882812 236.972656 C 357.976562 236.503906 358.113281 236.046875 358.296875 235.605469 C 358.480469 235.160156 358.703125 234.742188 358.96875 234.34375 C 359.238281 233.945312 359.539062 233.578125 359.878906 233.238281 C 360.214844 232.902344 360.582031 232.597656 360.980469 232.332031 C 361.378906 232.066406 361.800781 231.84375 362.242188 231.660156 C 362.683594 231.476562 363.140625 231.335938 363.609375 231.246094 C 364.078125 231.152344 364.554688 231.105469 365.03125 231.105469 C 365.511719 231.105469 365.984375 231.152344 366.453125 231.246094 C 366.921875 231.335938 367.378906 231.476562 367.820312 231.660156 C 368.261719 231.84375 368.683594 232.066406 369.082031 232.332031 C 369.480469 232.597656 369.847656 232.902344 370.1875 233.238281 C 370.523438 233.578125 370.828125 233.945312 371.09375 234.34375 C 371.359375 234.742188 371.582031 235.160156 371.765625 235.605469 C 371.949219 236.046875 372.085938 236.503906 372.179688 236.972656 C 372.273438 237.441406 372.320312 237.914062 372.320312 238.394531 Z M 372.320312 238.394531 " fill-opacity="1" fill-rule="nonzero"/><path fill="#d2e7fb" d="M 438.472656 309.480469 L 438.136719 309.480469 C 438.136719 309.539062 438.144531 309.59375 438.144531 309.648438 C 438.144531 309.722656 438.140625 309.792969 438.136719 309.867188 L 438.472656 309.867188 C 438.480469 309.796875 438.480469 309.722656 438.480469 309.648438 C 438.480469 309.59375 438.476562 309.535156 438.472656 309.480469 Z M 438.472656 309.480469 " fill-opacity="1" fill-rule="nonzero"/><path fill="#d2e7fb" d="M 442.917969 248.835938 L 470.316406 248.835938 L 482.5625 270.046875 C 482.765625 269.933594 482.976562 269.835938 483.203125 269.773438 L 470.714844 248.140625 L 442.515625 248.140625 L 429.96875 269.867188 C 430.1875 269.957031 430.386719 270.070312 430.574219 270.207031 Z M 442.917969 248.835938 " fill-opacity="1" fill-rule="nonzero"/><path fill="#d2e7fb" d="M 470.316406 296.289062 L 459.019531 296.289062 L 458.617188 296.984375 L 470.714844 296.984375 L 483.203125 275.351562 C 482.976562 275.285156 482.761719 275.191406 482.5625 275.078125 Z M 470.316406 296.289062 " fill-opacity="1" fill-rule="nonzero"/><path fill="#d2e7fb" d="M 430.578125 274.917969 C 430.390625 275.050781 430.1875 275.167969 429.972656 275.257812 L 434.894531 283.78125 L 435.296875 283.085938 Z M 430.578125 274.917969 " fill-opacity="1" fill-rule="nonzero"/><path fill="#d2e7fb" d="M 435.515625 283.472656 L 435.117188 284.167969 L 442.515625 296.984375 L 458.171875 296.984375 L 458.574219 296.289062 L 442.917969 296.289062 Z M 435.515625 283.472656 " fill-opacity="1" fill-rule="nonzero"/><path fill="#d2e7fb" d="M 450.957031 309.480469 L 438.472656 309.480469 C 438.476562 309.539062 438.480469 309.59375 438.480469 309.648438 C 438.480469 309.722656 438.476562 309.792969 438.472656 309.867188 L 451.183594 309.867188 L 458.617188 296.984375 L 458.171875 296.984375 Z M 450.957031 309.480469 " fill-opacity="1" fill-rule="nonzero"/><path fill="#d2e7fb" d="M 435.507812 282.71875 L 435.292969 283.085938 L 435.515625 283.472656 L 435.730469 283.101562 L 450.957031 283.101562 L 458.574219 296.289062 L 459.019531 296.289062 L 451.183594 282.71875 Z M 435.507812 282.71875 " fill-opacity="1" fill-rule="nonzero"/><path fill="#d2e7fb" d="M 428.113281 296.289062 L 435.113281 284.164062 L 434.890625 283.777344 L 427.667969 296.289062 L 434.042969 307.332031 C 434.148438 307.257812 434.261719 307.191406 434.375 307.136719 Z M 428.113281 296.289062 " fill-opacity="1" fill-rule="nonzero"/><path fill="#d2e7fb" d="M 435.515625 283.472656 L 435.292969 283.085938 L 434.894531 283.78125 L 435.117188 284.167969 Z M 435.515625 283.472656 " fill-opacity="1" fill-rule="nonzero"/><path fill="#d2e7fb" d="M 458.574219 296.289062 L 458.171875 296.984375 L 458.617188 296.984375 L 459.019531 296.289062 Z M 458.574219 296.289062 " fill-opacity="1" fill-rule="nonzero"/><path fill="#d2e7fb" d="M 435.660156 306.828125 C 435.199219 306.828125 434.765625 306.941406 434.378906 307.136719 L 434.546875 307.433594 C 434.882812 307.261719 435.261719 307.164062 435.660156 307.164062 C 436.972656 307.164062 438.050781 308.1875 438.136719 309.480469 L 438.472656 309.480469 C 438.386719 308.003906 437.160156 306.828125 435.660156 306.828125 Z M 435.660156 306.828125 " fill-opacity="1" fill-rule="nonzero"/><path fill="#d2e7fb" d="M 435.660156 312.132812 C 434.289062 312.132812 433.175781 311.015625 433.175781 309.644531 C 433.175781 308.8125 433.585938 308.078125 434.214844 307.625 L 434.046875 307.332031 C 433.316406 307.84375 432.835938 308.691406 432.835938 309.644531 C 432.835938 311.199219 434.101562 312.46875 435.660156 312.46875 C 437.144531 312.46875 438.359375 311.320312 438.46875 309.863281 L 438.132812 309.863281 C 438.023438 311.132812 436.957031 312.132812 435.660156 312.132812 Z M 435.660156 312.132812 " fill-opacity="1" fill-rule="nonzero"/><path fill="#d2e7fb" d="M 434.546875 307.429688 L 434.378906 307.136719 C 434.265625 307.191406 434.152344 307.257812 434.046875 307.332031 L 434.214844 307.625 C 434.320312 307.554688 434.433594 307.488281 434.546875 307.429688 Z M 434.546875 307.429688 " fill-opacity="1" fill-rule="nonzero"/><path fill="#d2e7fb" d="M 431.277344 272.5625 C 431.277344 273.34375 430.902344 274.039062 430.324219 274.476562 L 430.578125 274.917969 C 431.308594 274.390625 431.789062 273.53125 431.789062 272.5625 C 431.789062 271.59375 431.308594 270.738281 430.578125 270.210938 L 430.324219 270.652344 C 430.902344 271.089844 431.277344 271.78125 431.277344 272.5625 Z M 431.277344 272.5625 " fill-opacity="1" fill-rule="nonzero"/><path fill="#d2e7fb" d="M 428.878906 275.46875 C 429.265625 275.46875 429.632812 275.394531 429.972656 275.257812 L 429.714844 274.808594 C 429.453125 274.910156 429.171875 274.964844 428.878906 274.964844 C 427.558594 274.964844 426.480469 273.886719 426.480469 272.5625 C 426.480469 271.242188 427.558594 270.164062 428.878906 270.164062 C 429.171875 270.164062 429.453125 270.21875 429.714844 270.316406 L 429.972656 269.871094 C 429.632812 269.734375 429.265625 269.65625 428.878906 269.65625 C 427.277344 269.65625 425.972656 270.960938 425.972656 272.5625 C 425.972656 274.167969 427.277344 275.46875 428.878906 275.46875 Z M 428.878906 275.46875 " fill-opacity="1" fill-rule="nonzero"/><path fill="#d2e7fb" d="M 430.324219 274.476562 C 430.136719 274.617188 429.933594 274.726562 429.714844 274.808594 L 429.972656 275.257812 C 430.1875 275.167969 430.390625 275.050781 430.578125 274.917969 Z M 430.324219 274.476562 " fill-opacity="1" fill-rule="nonzero"/><path fill="#d2e7fb" d="M 430.324219 270.648438 L 430.578125 270.207031 C 430.390625 270.074219 430.1875 269.957031 429.972656 269.867188 L 429.714844 270.316406 C 429.933594 270.398438 430.136719 270.511719 430.324219 270.648438 Z M 430.324219 270.648438 " fill-opacity="1" fill-rule="nonzero"/><path fill="#d2e7fb" d="M 481.109375 272.5625 C 481.109375 273.636719 481.695312 274.574219 482.5625 275.078125 L 482.820312 274.636719 C 482.101562 274.222656 481.617188 273.449219 481.617188 272.5625 C 481.617188 271.671875 482.101562 270.902344 482.820312 270.484375 L 482.5625 270.042969 C 481.699219 270.550781 481.109375 271.488281 481.109375 272.5625 Z M 481.109375 272.5625 " fill-opacity="1" fill-rule="nonzero"/><path fill="#d2e7fb" d="M 484.015625 270.160156 C 485.339844 270.160156 486.414062 271.238281 486.414062 272.5625 C 486.414062 273.882812 485.339844 274.960938 484.015625 274.960938 C 483.828125 274.960938 483.644531 274.933594 483.46875 274.894531 L 483.203125 275.347656 C 483.460938 275.425781 483.734375 275.464844 484.011719 275.464844 C 485.617188 275.464844 486.917969 274.164062 486.917969 272.5625 C 486.917969 270.957031 485.617188 269.65625 484.011719 269.65625 C 483.734375 269.65625 483.460938 269.695312 483.203125 269.773438 L 483.46875 270.230469 C 483.644531 270.1875 483.828125 270.160156 484.015625 270.160156 Z M 484.015625 270.160156 " fill-opacity="1" fill-rule="nonzero"/><path fill="#d2e7fb" d="M 482.820312 274.636719 L 482.5625 275.078125 C 482.765625 275.191406 482.976562 275.289062 483.203125 275.351562 L 483.46875 274.894531 C 483.234375 274.84375 483.019531 274.757812 482.820312 274.636719 Z M 482.820312 274.636719 " fill-opacity="1" fill-rule="nonzero"/><path fill="#d2e7fb" d="M 482.820312 270.488281 C 483.019531 270.371094 483.238281 270.28125 483.46875 270.230469 L 483.203125 269.773438 C 482.976562 269.839844 482.765625 269.933594 482.5625 270.046875 Z M 482.820312 270.488281 " fill-opacity="1" fill-rule="nonzero"/><path fill="#d2e7fb" d="M 538.253906 90.832031 L 565.65625 90.832031 L 577.902344 112.046875 C 578.101562 111.929688 578.316406 111.835938 578.542969 111.773438 L 566.054688 90.140625 L 537.855469 90.140625 L 525.308594 111.871094 C 525.523438 111.960938 525.726562 112.070312 525.914062 112.207031 Z M 538.253906 90.832031 " fill-opacity="1" fill-rule="nonzero"/><path fill="#d2e7fb" d="M 565.652344 138.292969 L 554.355469 138.292969 L 553.953125 138.988281 L 566.050781 138.988281 L 578.539062 117.355469 C 578.3125 117.285156 578.097656 117.195312 577.898438 117.078125 Z M 565.652344 138.292969 " fill-opacity="1" fill-rule="nonzero"/><path fill="#d2e7fb" d="M 525.917969 116.917969 C 525.726562 117.050781 525.527344 117.164062 525.3125 117.253906 L 530.234375 125.78125 L 530.632812 125.085938 Z M 525.917969 116.917969 " fill-opacity="1" fill-rule="nonzero"/><path fill="#d2e7fb" d="M 530.855469 125.476562 L 530.453125 126.167969 L 537.855469 138.984375 L 553.511719 138.984375 L 553.910156 138.292969 L 538.253906 138.292969 Z M 530.855469 125.476562 " fill-opacity="1" fill-rule="nonzero"/><path fill="#d2e7fb" d="M 546.296875 151.480469 L 533.8125 151.480469 C 533.8125 151.535156 533.820312 151.589844 533.820312 151.648438 C 533.820312 151.722656 533.8125 151.792969 533.8125 151.863281 L 546.519531 151.863281 L 553.957031 138.984375 L 553.511719 138.984375 Z M 546.296875 151.480469 " fill-opacity="1" fill-rule="nonzero"/><path fill="#d2e7fb" d="M 530.84375 124.714844 L 530.632812 125.089844 L 530.855469 125.476562 L 531.066406 125.101562 L 546.296875 125.101562 L 553.910156 138.292969 L 554.355469 138.292969 L 546.519531 124.714844 Z M 530.84375 124.714844 " fill-opacity="1" fill-rule="nonzero"/><path fill="#d2e7fb" d="M 523.453125 138.292969 L 530.453125 126.167969 L 530.230469 125.78125 L 523.007812 138.292969 L 529.382812 149.335938 C 529.488281 149.261719 529.597656 149.195312 529.714844 149.136719 Z M 523.453125 138.292969 " fill-opacity="1" fill-rule="nonzero"/><path fill="#d2e7fb" d="M 530.855469 125.476562 L 530.632812 125.089844 L 530.230469 125.78125 L 530.453125 126.167969 Z M 530.855469 125.476562 " fill-opacity="1" fill-rule="nonzero"/><path fill="#d2e7fb" d="M 553.910156 138.292969 L 553.511719 138.984375 L 553.957031 138.984375 L 554.355469 138.292969 Z M 553.910156 138.292969 " fill-opacity="1" fill-rule="nonzero"/><path fill="#d2e7fb" d="M 530.996094 148.824219 C 530.535156 148.824219 530.101562 148.941406 529.71875 149.136719 L 529.886719 149.429688 C 530.21875 149.261719 530.601562 149.164062 530.996094 149.164062 C 532.308594 149.164062 533.386719 150.1875 533.472656 151.480469 L 533.8125 151.480469 C 533.722656 150 532.496094 148.824219 530.996094 148.824219 Z M 530.996094 148.824219 " fill-opacity="1" fill-rule="nonzero"/><path fill="#d2e7fb" d="M 530.996094 154.132812 C 529.628906 154.132812 528.511719 153.019531 528.511719 151.648438 C 528.511719 150.816406 528.921875 150.082031 529.554688 149.628906 L 529.386719 149.335938 C 528.65625 149.84375 528.175781 150.691406 528.175781 151.648438 C 528.175781 153.203125 529.441406 154.472656 530.996094 154.472656 C 532.484375 154.472656 533.699219 153.320312 533.808594 151.863281 L 533.46875 151.863281 C 533.363281 153.132812 532.292969 154.132812 530.996094 154.132812 Z M 530.996094 154.132812 " fill-opacity="1" fill-rule="nonzero"/><path fill="#d2e7fb" d="M 529.886719 149.429688 L 529.71875 149.136719 C 529.601562 149.195312 529.492188 149.261719 529.386719 149.335938 L 529.554688 149.628906 C 529.660156 149.554688 529.769531 149.488281 529.886719 149.429688 Z M 529.886719 149.429688 " fill-opacity="1" fill-rule="nonzero"/><path fill="#d2e7fb" d="M 526.617188 114.5625 C 526.617188 115.34375 526.242188 116.039062 525.660156 116.472656 L 525.917969 116.917969 C 526.644531 116.386719 527.125 115.53125 527.125 114.5625 C 527.125 113.59375 526.648438 112.738281 525.917969 112.207031 L 525.660156 112.652344 C 526.242188 113.085938 526.617188 113.78125 526.617188 114.5625 Z M 526.617188 114.5625 " fill-opacity="1" fill-rule="nonzero"/><path fill="#d2e7fb" d="M 524.21875 117.472656 C 524.601562 117.472656 524.972656 117.394531 525.3125 117.257812 L 525.050781 116.8125 C 524.792969 116.910156 524.511719 116.964844 524.21875 116.964844 C 522.894531 116.964844 521.820312 115.886719 521.820312 114.566406 C 521.820312 113.242188 522.894531 112.167969 524.21875 112.167969 C 524.511719 112.167969 524.792969 112.222656 525.050781 112.320312 L 525.3125 111.875 C 524.972656 111.738281 524.605469 111.660156 524.21875 111.660156 C 522.617188 111.660156 521.3125 112.964844 521.3125 114.566406 C 521.3125 116.167969 522.617188 117.472656 524.21875 117.472656 Z M 524.21875 117.472656 " fill-opacity="1" fill-rule="nonzero"/><path fill="#d2e7fb" d="M 525.65625 116.476562 C 525.472656 116.617188 525.269531 116.730469 525.050781 116.8125 L 525.308594 117.257812 C 525.523438 117.167969 525.726562 117.054688 525.914062 116.921875 Z M 525.65625 116.476562 " fill-opacity="1" fill-rule="nonzero"/><path fill="#d2e7fb" d="M 525.65625 112.652344 L 525.914062 112.207031 C 525.726562 112.074219 525.523438 111.960938 525.308594 111.871094 L 525.050781 112.316406 C 525.273438 112.398438 525.476562 112.511719 525.65625 112.652344 Z M 525.65625 112.652344 " fill-opacity="1" fill-rule="nonzero"/><path fill="#d2e7fb" d="M 576.445312 114.5625 C 576.445312 115.636719 577.03125 116.574219 577.902344 117.078125 L 578.15625 116.636719 C 577.441406 116.222656 576.957031 115.449219 576.957031 114.558594 C 576.957031 113.675781 577.441406 112.898438 578.15625 112.480469 L 577.902344 112.042969 C 577.03125 112.550781 576.445312 113.488281 576.445312 114.5625 Z M 576.445312 114.5625 " fill-opacity="1" fill-rule="nonzero"/><path fill="#d2e7fb" d="M 579.351562 112.164062 C 580.675781 112.164062 581.75 113.242188 581.75 114.5625 C 581.75 115.886719 580.675781 116.960938 579.351562 116.960938 C 579.164062 116.960938 578.980469 116.9375 578.804688 116.894531 L 578.539062 117.351562 C 578.796875 117.425781 579.070312 117.46875 579.347656 117.46875 C 580.953125 117.46875 582.253906 116.164062 582.253906 114.5625 C 582.253906 112.960938 580.953125 111.65625 579.347656 111.65625 C 579.070312 111.65625 578.796875 111.699219 578.539062 111.773438 L 578.804688 112.230469 C 578.984375 112.1875 579.164062 112.164062 579.351562 112.164062 Z M 579.351562 112.164062 " fill-opacity="1" fill-rule="nonzero"/><path fill="#d2e7fb" d="M 578.152344 116.640625 L 577.898438 117.078125 C 578.101562 117.195312 578.3125 117.289062 578.539062 117.355469 L 578.804688 116.898438 C 578.574219 116.84375 578.355469 116.753906 578.152344 116.640625 Z M 578.152344 116.640625 " fill-opacity="1" fill-rule="nonzero"/><path fill="#d2e7fb" d="M 578.152344 112.488281 C 578.355469 112.371094 578.574219 112.285156 578.804688 112.230469 L 578.539062 111.773438 C 578.3125 111.84375 578.097656 111.933594 577.898438 112.050781 Z M 578.152344 112.488281 " fill-opacity="1" fill-rule="nonzero"/><path fill="#d2e7fb" d="M 474.257812 353.484375 C 474.753906 353.484375 475.210938 353.65625 475.574219 353.9375 L 476.082031 353.054688 C 475.703125 352.789062 475.269531 352.601562 474.792969 352.519531 L 474.234375 353.484375 C 474.242188 353.484375 474.25 353.484375 474.257812 353.484375 Z M 474.257812 353.484375 " fill-opacity="1" fill-rule="nonzero"/><path fill="#d2e7fb" d="M 475.574219 357.324219 C 475.210938 357.609375 474.753906 357.777344 474.257812 357.777344 C 474.25 357.777344 474.242188 357.777344 474.234375 357.777344 L 474.789062 358.742188 C 475.265625 358.660156 475.703125 358.476562 476.082031 358.207031 Z M 475.574219 357.324219 " fill-opacity="1" fill-rule="nonzero"/><path fill="#d2e7fb" d="M 553.859375 403.089844 L 501.996094 403.089844 L 476.082031 358.207031 C 475.703125 358.476562 475.269531 358.664062 474.792969 358.742188 L 501.195312 404.476562 L 553.789062 404.476562 C 553.757812 404.300781 553.738281 404.117188 553.738281 403.933594 C 553.738281 403.640625 553.78125 403.355469 553.859375 403.089844 Z M 553.859375 403.089844 " fill-opacity="1" fill-rule="nonzero"/><path fill="#d2e7fb" d="M 501.996094 308.175781 L 556.796875 308.175781 L 584.195312 355.628906 L 558.011719 400.976562 C 558.453125 401.140625 558.851562 401.40625 559.171875 401.742188 L 585.792969 355.628906 L 557.59375 306.789062 L 501.195312 306.789062 L 474.792969 352.519531 C 475.269531 352.601562 475.707031 352.789062 476.082031 353.054688 Z M 501.996094 308.175781 " fill-opacity="1" fill-rule="nonzero"/><path fill="#d2e7fb" d="M 476.402344 355.628906 C 476.402344 356.316406 476.078125 356.929688 475.570312 357.320312 L 476.082031 358.203125 C 476.886719 357.628906 477.414062 356.691406 477.414062 355.628906 C 477.414062 354.570312 476.886719 353.625 476.082031 353.054688 L 475.570312 353.9375 C 476.078125 354.332031 476.402344 354.945312 476.402344 355.628906 Z M 476.402344 355.628906 " fill-opacity="1" fill-rule="nonzero"/><path fill="#d2e7fb" d="M 474.257812 358.789062 C 474.441406 358.789062 474.617188 358.769531 474.792969 358.742188 L 474.234375 357.777344 C 473.0625 357.765625 472.113281 356.808594 472.113281 355.632812 C 472.113281 354.457031 473.0625 353.5 474.234375 353.488281 L 474.792969 352.523438 C 474.617188 352.496094 474.441406 352.476562 474.257812 352.476562 C 472.515625 352.476562 471.097656 353.894531 471.097656 355.636719 C 471.097656 357.371094 472.515625 358.789062 474.257812 358.789062 Z M 474.257812 358.789062 " fill-opacity="1" fill-rule="nonzero"/><path fill="#d2e7fb" d="M 553.859375 403.089844 L 554.929688 403.089844 C 555.257812 402.324219 556.019531 401.789062 556.898438 401.789062 C 557.105469 401.789062 557.308594 401.820312 557.496094 401.875 L 558.011719 400.980469 C 557.664062 400.847656 557.292969 400.773438 556.898438 400.773438 C 555.449219 400.773438 554.226562 401.753906 553.859375 403.089844 Z M 553.859375 403.089844 " fill-opacity="1" fill-rule="nonzero"/><path fill="#d2e7fb" d="M 559.042969 403.933594 C 559.042969 405.113281 558.082031 406.082031 556.898438 406.082031 C 555.898438 406.082031 555.0625 405.398438 554.824219 404.476562 L 553.789062 404.476562 C 554.046875 405.960938 555.339844 407.09375 556.898438 407.09375 C 558.640625 407.09375 560.058594 405.675781 560.058594 403.933594 C 560.058594 403.082031 559.714844 402.3125 559.167969 401.742188 L 558.628906 402.675781 C 558.890625 403.027344 559.042969 403.460938 559.042969 403.933594 Z M 559.042969 403.933594 " fill-opacity="1" fill-rule="nonzero"/><path fill="#d2e7fb" d="M 558.011719 400.980469 L 557.496094 401.875 C 557.957031 402.007812 558.355469 402.296875 558.632812 402.675781 L 559.171875 401.742188 C 558.847656 401.40625 558.453125 401.144531 558.011719 400.980469 Z M 558.011719 400.980469 " fill-opacity="1" fill-rule="nonzero"/><path fill="#d2e7fb" d="M 554.753906 403.933594 C 554.753906 403.632812 554.816406 403.347656 554.929688 403.089844 L 553.859375 403.089844 C 553.78125 403.359375 553.738281 403.640625 553.738281 403.933594 C 553.738281 404.117188 553.757812 404.296875 553.789062 404.476562 L 554.824219 404.476562 C 554.777344 404.300781 554.753906 404.121094 554.753906 403.933594 Z M 554.753906 403.933594 " fill-opacity="1" fill-rule="nonzero"/><path fill="#d2e7fb" d="M 631.664062 248.007812 C 632.160156 248.007812 632.617188 248.179688 632.980469 248.457031 L 633.488281 247.574219 C 633.109375 247.308594 632.671875 247.121094 632.199219 247.039062 L 631.640625 248.007812 C 631.648438 248.007812 631.652344 248.007812 631.664062 248.007812 Z M 631.664062 248.007812 " fill-opacity="1" fill-rule="nonzero"/><path fill="#d2e7fb" d="M 632.980469 251.84375 C 632.617188 252.128906 632.160156 252.296875 631.664062 252.296875 C 631.652344 252.296875 631.648438 252.296875 631.636719 252.296875 L 632.195312 253.261719 C 632.671875 253.179688 633.109375 252.996094 633.484375 252.726562 Z M 632.980469 251.84375 " fill-opacity="1" fill-rule="nonzero"/><path fill="#d2e7fb" d="M 711.257812 297.609375 L 659.398438 297.609375 L 633.484375 252.726562 C 633.105469 252.996094 632.671875 253.183594 632.195312 253.261719 L 658.597656 298.996094 L 711.191406 298.996094 C 711.160156 298.820312 711.140625 298.636719 711.140625 298.453125 C 711.140625 298.160156 711.1875 297.878906 711.257812 297.609375 Z M 711.257812 297.609375 " fill-opacity="1" fill-rule="nonzero"/><g clip-path="url(#e9b0e03249)"><path fill="#d2e7fb" d="M 659.402344 202.695312 L 714.199219 202.695312 L 741.601562 250.148438 L 715.417969 295.496094 C 715.859375 295.664062 716.253906 295.925781 716.578125 296.261719 L 743.199219 250.148438 L 715 201.308594 L 658.601562 201.308594 L 632.199219 247.039062 C 632.671875 247.125 633.113281 247.308594 633.488281 247.574219 Z M 659.402344 202.695312 " fill-opacity="1" fill-rule="nonzero"/></g><path fill="#d2e7fb" d="M 633.808594 250.152344 C 633.808594 250.839844 633.484375 251.453125 632.976562 251.84375 L 633.484375 252.726562 C 634.292969 252.152344 634.820312 251.214844 634.820312 250.152344 C 634.820312 249.089844 634.292969 248.152344 633.484375 247.578125 L 632.976562 248.460938 C 633.484375 248.855469 633.808594 249.464844 633.808594 250.152344 Z M 633.808594 250.152344 " fill-opacity="1" fill-rule="nonzero"/><path fill="#d2e7fb" d="M 631.664062 253.3125 C 631.84375 253.3125 632.023438 253.292969 632.199219 253.265625 L 631.640625 252.300781 C 630.46875 252.289062 629.519531 251.332031 629.519531 250.15625 C 629.519531 248.980469 630.46875 248.023438 631.640625 248.011719 L 632.199219 247.046875 C 632.023438 247.019531 631.847656 247 631.664062 247 C 629.921875 247 628.503906 248.417969 628.503906 250.160156 C 628.503906 251.894531 629.921875 253.3125 631.664062 253.3125 Z M 631.664062 253.3125 " fill-opacity="1" fill-rule="nonzero"/><path fill="#d2e7fb" d="M 711.257812 297.609375 L 712.332031 297.609375 C 712.660156 296.84375 713.417969 296.308594 714.300781 296.308594 C 714.507812 296.308594 714.710938 296.339844 714.898438 296.394531 L 715.414062 295.5 C 715.066406 295.371094 714.695312 295.292969 714.300781 295.292969 C 712.851562 295.292969 711.632812 296.277344 711.257812 297.609375 Z M 711.257812 297.609375 " fill-opacity="1" fill-rule="nonzero"/><path fill="#d2e7fb" d="M 716.449219 298.453125 C 716.449219 299.636719 715.488281 300.601562 714.300781 300.601562 C 713.304688 300.601562 712.46875 299.917969 712.226562 298.996094 L 711.191406 298.996094 C 711.449219 300.480469 712.746094 301.613281 714.300781 301.613281 C 716.046875 301.613281 717.460938 300.195312 717.460938 298.453125 C 717.460938 297.601562 717.121094 296.832031 716.574219 296.261719 L 716.035156 297.195312 C 716.296875 297.546875 716.449219 297.984375 716.449219 298.453125 Z M 716.449219 298.453125 " fill-opacity="1" fill-rule="nonzero"/><path fill="#d2e7fb" d="M 715.414062 295.5 L 714.898438 296.394531 C 715.359375 296.527344 715.757812 296.816406 716.035156 297.195312 L 716.574219 296.261719 C 716.253906 295.929688 715.855469 295.664062 715.414062 295.5 Z M 715.414062 295.5 " fill-opacity="1" fill-rule="nonzero"/><path fill="#d2e7fb" d="M 712.15625 298.453125 C 712.15625 298.152344 712.222656 297.867188 712.332031 297.609375 L 711.261719 297.609375 C 711.1875 297.878906 711.144531 298.160156 711.144531 298.453125 C 711.144531 298.636719 711.164062 298.816406 711.195312 298.996094 L 712.230469 298.996094 C 712.183594 298.824219 712.15625 298.640625 712.15625 298.453125 Z M 712.15625 298.453125 " fill-opacity="1" fill-rule="nonzero"/><path fill="#d2e7fb" d="M 590.148438 579.539062 L 564.054688 534.34375 L 591.457031 486.886719 L 646.253906 486.886719 L 673.65625 534.34375 L 646.253906 581.800781 L 594.296875 581.800781 C 594.351562 582.027344 594.378906 582.265625 594.378906 582.507812 C 594.378906 582.742188 594.355469 582.96875 594.308594 583.183594 L 647.058594 583.183594 L 675.257812 534.34375 L 647.058594 485.5 L 590.652344 485.5 L 562.453125 534.34375 L 588.976562 580.28125 C 589.304688 579.957031 589.703125 579.703125 590.148438 579.539062 Z M 590.148438 579.539062 " fill-opacity="1" fill-rule="nonzero"/><path fill="#d2e7fb" d="M 504.636719 543.078125 L 556.792969 543.078125 L 582.820312 588.15625 C 583.164062 587.851562 583.578125 587.625 584.035156 587.496094 L 557.589844 541.691406 L 504.574219 541.691406 C 504.644531 541.957031 504.6875 542.238281 504.6875 542.523438 C 504.6875 542.710938 504.667969 542.898438 504.636719 543.078125 Z M 504.636719 543.078125 " fill-opacity="1" fill-rule="nonzero"/><path fill="#d2e7fb" d="M 500.574219 545.539062 C 500.121094 545.394531 499.71875 545.152344 499.378906 544.839844 L 474.8125 587.386719 C 475.304688 587.421875 475.769531 587.570312 476.171875 587.800781 Z M 500.574219 545.539062 " fill-opacity="1" fill-rule="nonzero"/><g clip-path="url(#a68918c667)"><path fill="#d2e7fb" d="M 556.792969 637.992188 L 501.992188 637.992188 L 476.171875 593.269531 C 475.769531 593.503906 475.304688 593.652344 474.8125 593.683594 L 501.191406 639.375 L 557.589844 639.375 L 584.035156 593.574219 C 583.578125 593.445312 583.164062 593.21875 582.820312 592.910156 Z M 556.792969 637.992188 " fill-opacity="1" fill-rule="nonzero"/></g><path fill="#d2e7fb" d="M 591.214844 584.65625 C 590.035156 584.65625 589.070312 583.695312 589.070312 582.507812 C 589.070312 582.023438 589.234375 581.574219 589.511719 581.210938 L 588.976562 580.28125 C 588.410156 580.851562 588.054688 581.644531 588.054688 582.507812 C 588.054688 584.253906 589.472656 585.667969 591.214844 585.667969 C 592.726562 585.667969 593.992188 584.605469 594.304688 583.183594 L 593.253906 583.183594 C 592.96875 584.042969 592.164062 584.65625 591.214844 584.65625 Z M 591.214844 584.65625 " fill-opacity="1" fill-rule="nonzero"/><path fill="#d2e7fb" d="M 591.214844 580.363281 C 592.148438 580.363281 592.945312 580.96875 593.238281 581.800781 L 594.292969 581.800781 C 593.96875 580.398438 592.714844 579.351562 591.214844 579.351562 C 590.839844 579.351562 590.484375 579.421875 590.148438 579.542969 L 590.667969 580.441406 C 590.84375 580.394531 591.027344 580.363281 591.214844 580.363281 Z M 591.214844 580.363281 " fill-opacity="1" fill-rule="nonzero"/><path fill="#d2e7fb" d="M 594.292969 581.800781 L 593.238281 581.800781 C 593.320312 582.023438 593.363281 582.265625 593.363281 582.511719 C 593.363281 582.75 593.324219 582.972656 593.253906 583.1875 L 594.304688 583.1875 C 594.351562 582.972656 594.378906 582.746094 594.378906 582.511719 C 594.378906 582.265625 594.347656 582.03125 594.292969 581.800781 Z M 594.292969 581.800781 " fill-opacity="1" fill-rule="nonzero"/><path fill="#d2e7fb" d="M 590.667969 580.4375 L 590.148438 579.539062 C 589.703125 579.699219 589.304688 579.953125 588.976562 580.28125 L 589.511719 581.210938 C 589.800781 580.839844 590.199219 580.5625 590.667969 580.4375 Z M 590.667969 580.4375 " fill-opacity="1" fill-rule="nonzero"/><path fill="#d2e7fb" d="M 584.894531 588.386719 C 586.078125 588.386719 587.042969 589.351562 587.042969 590.535156 C 587.042969 591.71875 586.082031 592.683594 584.894531 592.683594 C 584.785156 592.683594 584.675781 592.667969 584.566406 592.652344 L 584.035156 593.574219 C 584.308594 593.652344 584.597656 593.695312 584.890625 593.695312 C 586.636719 593.695312 588.054688 592.277344 588.054688 590.535156 C 588.054688 588.792969 586.636719 587.375 584.890625 587.375 C 584.597656 587.375 584.304688 587.417969 584.035156 587.496094 L 584.566406 588.417969 C 584.675781 588.398438 584.785156 588.386719 584.894531 588.386719 Z M 584.894531 588.386719 " fill-opacity="1" fill-rule="nonzero"/><path fill="#d2e7fb" d="M 581.734375 590.535156 C 581.734375 591.480469 582.15625 592.332031 582.820312 592.910156 L 583.339844 592.011719 C 582.972656 591.625 582.75 591.105469 582.75 590.535156 C 582.75 589.964844 582.976562 589.445312 583.339844 589.058594 L 582.820312 588.15625 C 582.15625 588.738281 581.734375 589.589844 581.734375 590.535156 Z M 581.734375 590.535156 " fill-opacity="1" fill-rule="nonzero"/><path fill="#d2e7fb" d="M 583.339844 589.058594 C 583.664062 588.722656 584.089844 588.488281 584.570312 588.417969 L 584.039062 587.496094 C 583.582031 587.625 583.167969 587.851562 582.820312 588.160156 Z M 583.339844 589.058594 " fill-opacity="1" fill-rule="nonzero"/><path fill="#d2e7fb" d="M 583.339844 592.011719 L 582.820312 592.910156 C 583.164062 593.21875 583.578125 593.445312 584.035156 593.574219 L 584.566406 592.652344 C 584.089844 592.582031 583.660156 592.347656 583.339844 592.011719 Z M 583.339844 592.011719 " fill-opacity="1" fill-rule="nonzero"/><path fill="#d2e7fb" d="M 504.636719 543.078125 L 503.597656 543.078125 C 503.351562 543.992188 502.519531 544.671875 501.527344 544.671875 C 501.378906 544.671875 501.238281 544.65625 501.101562 544.628906 L 500.574219 545.539062 C 500.875 545.632812 501.195312 545.683594 501.527344 545.683594 C 503.082031 545.683594 504.375 544.558594 504.636719 543.078125 Z M 504.636719 543.078125 " fill-opacity="1" fill-rule="nonzero"/><path fill="#d2e7fb" d="M 499.382812 542.523438 C 499.382812 541.34375 500.34375 540.378906 501.53125 540.378906 C 502.417969 540.378906 503.183594 540.917969 503.507812 541.691406 L 504.574219 541.691406 C 504.210938 540.351562 502.984375 539.359375 501.53125 539.359375 C 499.789062 539.359375 498.371094 540.777344 498.371094 542.523438 C 498.371094 543.433594 498.761719 544.253906 499.382812 544.832031 L 499.910156 543.921875 C 499.582031 543.546875 499.382812 543.058594 499.382812 542.523438 Z M 499.382812 542.523438 " fill-opacity="1" fill-rule="nonzero"/><path fill="#d2e7fb" d="M 501.101562 544.628906 C 500.625 544.53125 500.210938 544.277344 499.90625 543.921875 L 499.378906 544.835938 C 499.71875 545.148438 500.125 545.390625 500.574219 545.535156 Z M 501.101562 544.628906 " fill-opacity="1" fill-rule="nonzero"/><path fill="#d2e7fb" d="M 503.675781 542.523438 C 503.675781 542.714844 503.644531 542.902344 503.597656 543.078125 L 504.636719 543.078125 C 504.667969 542.898438 504.6875 542.714844 504.6875 542.523438 C 504.6875 542.234375 504.644531 541.957031 504.574219 541.691406 L 503.503906 541.691406 C 503.613281 541.949219 503.675781 542.230469 503.675781 542.523438 Z M 503.675781 542.523438 " fill-opacity="1" fill-rule="nonzero"/><path fill="#d2e7fb" d="M 474.597656 593.695312 C 474.667969 593.695312 474.742188 593.6875 474.8125 593.6875 L 474.214844 592.648438 C 473.214844 592.464844 472.449219 591.589844 472.449219 590.539062 C 472.449219 589.488281 473.210938 588.609375 474.214844 588.429688 L 474.8125 587.390625 C 474.738281 587.382812 474.667969 587.378906 474.597656 587.378906 C 472.851562 587.378906 471.433594 588.796875 471.433594 590.542969 C 471.433594 592.277344 472.851562 593.695312 474.597656 593.695312 Z M 474.597656 593.695312 " fill-opacity="1" fill-rule="nonzero"/><path fill="#d2e7fb" d="M 476.742188 590.535156 C 476.742188 591.328125 476.308594 592.019531 475.667969 592.390625 L 476.175781 593.269531 C 477.117188 592.71875 477.757812 591.699219 477.757812 590.535156 C 477.757812 589.367188 477.121094 588.347656 476.175781 587.800781 L 475.667969 588.675781 C 476.308594 589.050781 476.742188 589.742188 476.742188 590.535156 Z M 476.742188 590.535156 " fill-opacity="1" fill-rule="nonzero"/><path fill="#d2e7fb" d="M 475.667969 592.390625 C 475.351562 592.574219 474.984375 592.683594 474.597656 592.683594 C 474.464844 592.683594 474.335938 592.667969 474.214844 592.648438 L 474.8125 593.6875 C 475.304688 593.652344 475.769531 593.503906 476.171875 593.273438 Z M 475.667969 592.390625 " fill-opacity="1" fill-rule="nonzero"/><path fill="#d2e7fb" d="M 474.597656 588.386719 C 474.988281 588.386719 475.351562 588.492188 475.667969 588.675781 L 476.171875 587.800781 C 475.769531 587.566406 475.304688 587.417969 474.8125 587.386719 L 474.214844 588.425781 C 474.335938 588.402344 474.464844 588.386719 474.597656 588.386719 Z M 474.597656 588.386719 " fill-opacity="1" fill-rule="nonzero"/></g></g></g><g fill="#000000" fill-opacity="1"><g transform="translate(0.00000622222, 802.149988)"><g><path d="M 4.46875 0.171875 C 3.832031 0.171875 3.332031 -0.00390625 2.96875 -0.359375 C 2.601562 -0.710938 2.421875 -1.1875 2.421875 -1.78125 C 2.421875 -2.351562 2.601562 -2.820312 2.96875 -3.1875 C 3.332031 -3.5625 3.832031 -3.75 4.46875 -3.75 C 5.101562 -3.75 5.601562 -3.570312 5.96875 -3.21875 C 6.34375 -2.863281 6.53125 -2.394531 6.53125 -1.8125 C 6.53125 -1.226562 6.34375 -0.75 5.96875 -0.375 C 5.59375 -0.0078125 5.09375 0.171875 4.46875 0.171875 Z M 4.46875 0.171875 "/></g></g></g></svg>